<svg version="1.1" xmlns="http://www.w3.org/2000/svg" style="display: block;" viewBox="0 0 1728 1328" width="432" height="332" preserveAspectRatio="none">
<defs>
	<linearGradient id="Gradient1" gradientUnits="userSpaceOnUse" x1="918.283" y1="426.985" x2="921.077" y2="437.085">
		<stop class="stop0" offset="0" stop-opacity="1" stop-color="rgb(150,144,145)"/>
		<stop class="stop1" offset="1" stop-opacity="1" stop-color="rgb(126,121,124)"/>
	</linearGradient>
	<linearGradient id="Gradient2" gradientUnits="userSpaceOnUse" x1="868.531" y1="712.868" x2="901.004" y2="641.044">
		<stop class="stop0" offset="0" stop-opacity="1" stop-color="rgb(253,178,106)"/>
		<stop class="stop1" offset="1" stop-opacity="1" stop-color="rgb(244,199,151)"/>
	</linearGradient>
	<linearGradient id="Gradient3" gradientUnits="userSpaceOnUse" x1="653.139" y1="564.255" x2="663.143" y2="362.667">
		<stop class="stop0" offset="0" stop-opacity="1" stop-color="rgb(218,130,75)"/>
		<stop class="stop1" offset="1" stop-opacity="1" stop-color="rgb(255,199,132)"/>
	</linearGradient>
	<linearGradient id="Gradient4" gradientUnits="userSpaceOnUse" x1="422.966" y1="783.601" x2="387.93" y2="760.393">
		<stop class="stop0" offset="0" stop-opacity="1" stop-color="rgb(249,209,166)"/>
		<stop class="stop1" offset="1" stop-opacity="1" stop-color="rgb(250,235,214)"/>
	</linearGradient>
</defs>
<path transform="translate(0,0)" fill="rgb(7,2,1)" d="M 597.813 506.03 C 589.355 492.276 583.047 475.338 586.425 459.205 C 585.257 457.52 584.288 457.866 581.598 457.245 C 563.472 438.757 625.769 399.237 631.486 387.584 C 637.672 374.973 626.435 378.145 646.144 363.497 C 660.479 346.851 683.703 352.641 697.841 345.924 C 756.326 318.137 815.518 312.55 875.127 355.386 C 880.857 358.715 888.959 359.471 895.084 362.396 C 919.154 373.89 934.201 398.23 937.49 424.212 C 950.272 429.215 966.218 437.184 946.935 449.745 C 944.319 476.791 946.523 491.094 920.003 504.549 C 923.586 508.807 926.877 513.056 931.603 516.092 C 940.101 535.928 933.302 565.289 925.66 584.857 C 917.815 604.945 908.106 611.132 896.917 626.893 C 904.626 635.296 913.923 643.713 920.894 652.113 C 939.366 674.374 942.868 706.801 941.739 734.915 C 941.701 735.867 941.649 736.819 941.585 737.769 C 950.442 738.445 960.288 740.445 969.059 742.106 C 1000.64 748.085 1032.2 753.752 1064.02 758.37 C 1073.86 759.799 1083.2 763.862 1093.12 763.903 C 1090.62 754.64 1097 735.935 1100 726.738 C 1132.64 626.446 1200.98 538.951 1284.92 476.091 C 1286.44 474.955 1290.3 474.491 1292.17 474.295 C 1293.53 464.742 1290.55 446.963 1297.51 440.454 C 1303.08 435.23 1326.5 437.668 1334.3 438.147 C 1337.04 439.364 1340.96 439.591 1343.69 438.395 C 1345.94 435.074 1345.89 430.649 1346.32 426.469 C 1355.8 420.41 1360.65 421.743 1371.42 422.918 C 1374.45 404.784 1385.7 391.873 1405.88 401.924 C 1413.62 405.78 1416.02 415.327 1417.67 423.35 C 1421.37 422.838 1425.97 422.596 1429.07 420.804 C 1438.51 422.898 1442 428.301 1442.85 437.7 C 1444.5 438.886 1444.39 438.999 1446.38 439.097 C 1449.84 426.013 1452.73 412.743 1455.27 399.591 C 1456.58 392.833 1460.34 385.044 1465.69 380.839 C 1474.95 373.554 1519.82 330.384 1525.41 329.414 C 1530.82 332.775 1532.6 344.215 1534.12 350.954 C 1544.51 397.427 1543.47 446.821 1532.24 492.996 C 1522.8 531.838 1508.79 571.112 1511.13 611.513 C 1515.55 687.762 1569.05 751.844 1587.5 823.952 C 1606.43 897.909 1590.68 978.926 1550.1 1042.86 C 1543.9 1052.75 1532.13 1069.13 1521.73 1074.05 C 1520.33 1088.48 1520.99 1110.13 1521.26 1125.02 C 1531.36 1124.94 1574.31 1122.43 1579.18 1129.06 C 1578.35 1132.15 1578.82 1131.08 1575.89 1133.43 C 1567.92 1134.87 1561.51 1134.29 1553.54 1134.51 C 1507.87 1135.78 1462.27 1134.81 1416.6 1134.91 L 1268.2 1134.97 C 1244.82 1134.97 1214.91 1136.45 1192.07 1134.07 C 1192.28 1141.93 1192.35 1149.79 1192.29 1157.65 C 1197.32 1155.91 1204.85 1155.64 1210.02 1157.05 C 1235.05 1163.88 1259.69 1170.31 1285.23 1175.27 C 1287.44 1175.7 1290.43 1176.99 1291.76 1178.8 C 1287.85 1182.35 1268.97 1185.32 1262.69 1187.17 C 1159.87 1217.5 1056.65 1246.47 953.053 1274.06 C 862.181 1298.35 879.771 1304.85 786.404 1277.9 L 729.78 1262.15 L 475.016 1192.28 L 355.067 1158.48 C 335.97 1153.3 291.217 1142.23 274.156 1135.26 C 278.556 1134.53 282.074 1134.05 286.513 1133.63 C 282.963 1132.7 278.507 1128.34 275.758 1125.81 C 255.04 1125.05 234.269 1126.75 213.164 1124.85 C 212.134 1123.42 210.721 1122.33 209.659 1121.07 C 181.729 1087.84 118.188 1003.17 119.71 959.345 C 116.62 955.194 113.427 946.471 112.829 941.172 C 112.972 935.846 112.957 933.479 114.162 928.325 C 111.245 920.772 105.314 912.412 101.911 904.967 C 93.5344 886.64 81.214 847.349 91.3708 828.595 C 93.07 825.23 92.2623 794.641 92.5851 788.662 C 97.9232 689.791 138.882 583.605 221.955 524.741 C 274.261 487.678 338.571 471.929 400.097 494.135 C 450.375 512.283 490.303 551.04 540.066 569.069 C 541.906 569.732 543.649 568.109 544.872 567.01 L 541.303 564.526 C 540.484 560.551 542.195 558.334 545.933 557.048 C 571.007 548.421 586.503 530.578 597.813 506.03 z M 770.244 629.548 C 771.195 630.278 773.191 631.715 773.963 632.473 C 779.227 630.98 789.907 630.602 792.739 628.432 C 788.522 625.565 775.19 628.227 770.244 629.548 z M 1313.12 784.554 C 1321.27 782.607 1329.66 781.942 1338.01 781.052 C 1328.17 779.382 1315.35 779.783 1305.39 780.59 C 1308.98 781.087 1310.7 780.622 1312.78 782.752 L 1313.12 784.554 z"/>
<path transform="translate(0,0)" fill="rgb(158,99,68)" fill-opacity="0.984314" d="M 770.244 629.548 C 775.19 628.227 788.522 625.565 792.739 628.432 C 789.907 630.602 779.227 630.98 773.963 632.473 C 773.191 631.715 771.195 630.278 770.244 629.548 z"/>
<path transform="translate(0,0)" fill="rgb(189,189,188)" fill-opacity="0.984314" d="M 1305.39 780.59 C 1315.35 779.783 1328.17 779.382 1338.01 781.052 C 1329.66 781.942 1321.27 782.607 1313.12 784.554 L 1312.78 782.752 C 1310.7 780.622 1308.98 781.087 1305.39 780.59 z"/>
<path transform="translate(0,0)" fill="rgb(206,220,232)" d="M 91.3708 828.595 C 93.07 825.23 92.2623 794.641 92.5851 788.662 C 97.9232 689.791 138.882 583.605 221.955 524.741 C 274.261 487.678 338.571 471.929 400.097 494.135 C 450.375 512.283 490.303 551.04 540.066 569.069 C 541.906 569.732 543.649 568.109 544.872 567.01 C 548.668 566.305 553.471 567.614 557.44 568.381 C 541.835 574.646 479.128 608.928 480.826 626.904 C 484.312 631.513 488.773 629.535 494.217 628.782 C 472.368 651.373 459.174 680.756 442.945 707.637 C 425.393 736.826 404.753 764.043 381.379 788.818 C 365.773 805.202 303.233 859.609 302.346 879.147 C 304.924 885.335 308.529 883.811 306.964 886.814 C 300.294 899.618 292.276 910.05 286.372 923.474 C 255.508 897.039 239.438 874.981 236.173 832.508 C 232.134 785.362 246.932 738.534 277.33 702.27 C 283.866 694.616 294.235 686.783 302.397 680.882 C 306.312 678.051 316.128 671.879 318.683 668.699 L 318.509 666.81 C 299.754 652.67 260.344 661.438 239.833 669.719 L 237.692 666.084 C 239.823 662.894 242.411 659.207 244.355 655.977 C 196.805 662.86 172.56 689.834 152.956 730.803 C 153.486 719.579 154.13 712.312 152.93 701.036 C 111.298 731.997 97.0531 807.655 113.286 854.872 C 106.768 845.547 100.153 835.993 91.3708 828.595 z"/>
<path transform="translate(0,0)" fill="rgb(248,187,122)" d="M 591.783 533.082 C 594.324 528.684 600.72 515.24 605.392 514.58 L 606.798 516.931 C 609.633 539.999 620.418 593.37 639.151 608.377 C 661.152 626.001 696.483 609.108 705.993 583.384 C 707.823 590.853 710.433 596.789 713.083 603.98 C 721.252 626.149 727.03 649.295 735.461 671.356 C 739.449 681.793 745.754 691.365 749.59 701.978 C 751.348 696.848 754.992 681.91 759.31 679.986 C 766.413 684.431 769.171 690.447 770.851 698.424 C 774.748 716.937 773.806 719.283 764.74 734.05 L 764.392 742.128 C 752.898 743.996 738.493 748.302 725.88 750.632 C 725.688 750.065 725.486 749.502 725.275 748.942 C 718.488 731.097 702.006 719.153 685.191 711.458 L 680.967 710.098 C 658.557 704.965 651.988 704.283 629.055 705.156 C 621.759 706.395 611.361 707.891 604.44 709.637 C 595.993 711.447 589.098 713.338 580.792 715.744 C 567.058 722.236 526.573 736.538 519.734 748.54 L 519.912 750.025 C 522.542 750.337 534.515 742.557 538.455 740.786 C 556.299 732.764 579.394 722.666 598.645 718.959 C 599.406 720.358 600.244 722.616 601.874 722.712 C 618.107 723.668 634.896 719.738 651.522 721.097 C 659.571 721.754 674.695 726.654 679.659 725.988 C 686.618 728.584 693.072 740.029 697.678 746.492 C 701.506 749.253 702.79 750.348 706.099 753.711 C 706.317 754.768 707.04 757.952 707.106 758.844 C 704.916 759.51 703.996 759.592 702.326 761.195 C 703.501 767.699 704.202 770.968 704.035 777.693 C 698.43 779.988 695.288 778.27 690.005 779.373 C 687.267 779.945 685.224 784.485 681.587 784.448 C 679.672 782.345 679.8 781.766 679.303 778.815 C 677.837 769.845 677.009 763.835 670.725 756.522 L 668.847 756.691 C 669.127 766.941 673.168 768.536 673.471 781.853 C 667.023 811.425 630.585 779.618 621.802 767.366 C 616.518 766.644 618.78 768.536 614.437 768.572 C 607.156 769.547 599.908 770.749 592.702 772.178 C 567.045 776.637 546.508 773.884 528.068 793.759 C 527.02 793.474 525.806 793.144 524.425 792.769 C 516.364 797.63 494.665 805.81 488.064 809.604 C 486.855 810.303 485.668 811.037 484.503 811.807 C 482.991 808.046 479.524 796.394 478.15 794.586 L 476.329 794.857 L 474.701 797.085 C 474.007 797.405 472.283 797.823 471.461 798.051 C 467.683 795.31 470.257 794.167 466.781 788.649 C 464.971 788.079 464.505 788.272 462.662 788.543 L 462.066 788.636 L 460.637 787.333 C 461.607 761.614 475.538 726.429 485.239 702.581 C 469.676 719.19 462.003 743.295 455.89 764.693 C 439.414 793.158 441.658 827.293 447.593 858.388 C 448.762 864.513 447.357 874.902 450.047 879.636 C 445.03 884.968 442.911 888.165 439.144 894.441 C 451.799 901.256 479.249 904.848 495.437 909.43 C 496.594 927.415 492.454 942.294 490.35 959.541 C 480.724 947.227 452.298 907.049 434.506 916.885 C 422.791 911.139 414.273 907.133 401.127 905.934 C 396.492 905.953 390.92 905.392 387.128 907.643 C 399.523 909.043 425.203 916.055 433.234 925.041 C 453.583 939.81 459.817 955.902 467.739 978.496 C 467.059 980.532 466.732 980.771 465.487 982.473 L 463.388 982.475 C 455.37 967.508 450.239 958.743 440.436 944.736 C 438.9 949.19 440.549 953.558 441.31 958.774 C 445.902 990.263 444.816 1008.25 426.146 1035.47 C 420.504 1043.7 413.424 1053.01 404.204 1057.49 C 392.056 1063.4 365.488 1064.62 352.935 1060.37 C 339.702 1055.95 328.437 1047.03 321.096 1035.16 L 320.288 1037.66 C 319.663 1035.96 319.657 1035.34 319.414 1033.56 L 319.06 1037.5 L 317.772 1037.49 C 301.868 1020.3 304.642 995.901 302.125 974.758 C 296.983 989.475 293.293 1001.66 293.323 1017.49 C 293.325 1018.88 292.002 1021.26 290.691 1022.04 C 288.164 1016.95 289.478 1006.21 287.653 1001.05 C 286.511 997.817 281.307 999.356 277.948 994.559 C 277.891 971.035 281.748 960.002 289.302 937.923 C 291.602 939.885 292.101 940.839 294.889 940.521 C 308.647 924.822 317.634 899.628 333.023 883.801 C 337.939 878.746 355.095 862.351 355.055 855.94 L 353.263 854.99 C 347.437 854.986 347.089 856.329 342.305 856.909 L 342.184 856.094 C 349.393 847.436 355.038 843.702 362.776 836.327 C 375.861 823.857 395.794 807.016 406.583 792.974 C 418.275 777.757 429.304 757.237 439.987 741.266 C 444.375 734.705 456.896 724.817 460.167 718.729 C 471.928 695.618 481.638 674.541 497.553 653.827 C 509.238 638.619 522.082 631.448 534.314 619.199 L 535.56 618.019 L 534.486 616.913 C 528.689 616.093 523.899 616.717 518.126 617.203 C 533.119 609.597 563.303 588.212 574.407 575.927 C 577.818 571.926 596.767 539.455 595.709 535.256 L 591.783 533.082 z"/>
<path transform="translate(0,0)" fill="rgb(209,140,90)" d="M 595.301 568.682 C 596.155 584.206 594.291 593.423 596.514 611.741 C 599.066 607.893 601.534 603.41 603.868 599.373 C 609.306 602.539 608.613 601.846 609.701 608.58 C 610.877 619.06 611.707 633.26 615.437 642.803 C 617.784 648.808 620.911 650.923 623.178 657.851 L 624.675 658.397 C 626.992 655.04 628.295 630.98 629.511 624.584 C 635.551 648.788 638.076 661.129 652.818 682.111 C 652.751 674.228 652.683 670.63 653.998 662.744 C 659.036 671.978 679.779 703.79 680.967 710.098 C 658.557 704.965 651.988 704.283 629.055 705.156 C 616.682 686.09 606.605 673.697 600.23 650.365 C 598.109 642.601 597.569 635.065 595.326 627.075 L 594.029 627.418 C 591.379 631.48 590.334 637.495 589.177 642.344 C 588.017 639.417 586.893 636.474 585.808 633.518 C 575.674 605.713 583.878 593.141 595.301 568.682 z"/>
<path transform="translate(0,0)" fill="rgb(221,151,93)" d="M 685.191 711.458 C 689.582 702.705 684.873 698.314 683.053 689.552 C 681.62 682.652 680.309 669.302 681.535 662.528 L 682.582 662.612 C 683.902 666.438 684.058 670.644 685.469 673.753 C 697.695 700.695 707.687 715.184 731.853 731.916 C 732.481 720.239 730.897 711.052 731.291 701.096 C 735.541 711.735 748.408 748.829 764.74 734.05 L 764.392 742.128 C 752.898 743.996 738.493 748.302 725.88 750.632 C 725.688 750.065 725.486 749.502 725.275 748.942 C 718.488 731.097 702.006 719.153 685.191 711.458 z"/>
<path transform="translate(0,0)" fill="rgb(221,151,93)" d="M 615.03 756.314 L 616.001 754.629 C 628.381 755.978 645.978 781.686 659.875 782.884 C 663.791 783.221 669.459 782.368 673.471 781.853 C 667.023 811.425 630.585 779.618 621.802 767.366 L 615.03 756.314 z"/>
<path transform="translate(0,0)" fill="rgb(235,182,132)" d="M 440.436 944.736 C 437.717 940.02 434.872 937.118 431.747 932.66 C 439.876 933.026 444.678 953.3 453.429 957.774 L 455.369 957.098 L 456.056 955.068 C 453.936 946.657 439.294 932.985 432.871 926.858 L 433.234 925.041 C 453.583 939.81 459.817 955.902 467.739 978.496 C 467.059 980.532 466.732 980.771 465.487 982.473 L 463.388 982.475 C 455.37 967.508 450.239 958.743 440.436 944.736 z"/>
<path transform="translate(0,0)" fill="rgb(209,140,90)" d="M 615.03 756.314 L 621.802 767.366 C 616.518 766.644 618.78 768.536 614.437 768.572 C 607.156 769.547 599.908 770.749 592.702 772.178 C 591.116 767.211 589.659 764.207 593.253 759.722 C 596.439 757.451 598.19 757.854 602.025 757.997 C 607.583 758.254 609.955 759.074 615.03 756.314 z"/>
<path transform="translate(0,0)" fill="rgb(34,2,0)" d="M 615.03 756.314 L 621.802 767.366 C 616.518 766.644 618.78 768.536 614.437 768.572 C 610.108 762.025 606.859 764.877 601.615 760.56 L 602.025 757.997 C 607.583 758.254 609.955 759.074 615.03 756.314 z"/>
<path transform="translate(0,0)" fill="rgb(221,151,93)" d="M 580.792 715.744 C 582.273 708.993 588.791 698.759 591.615 686.492 C 594.697 693.442 597.365 701.463 600.764 708.085 C 601.552 709.62 602.382 709.305 604.44 709.637 C 595.993 711.447 589.098 713.338 580.792 715.744 z"/>
<path transform="translate(0,0)" fill="rgb(83,37,9)" d="M 697.678 746.492 C 701.506 749.253 702.79 750.348 706.099 753.711 C 706.317 754.768 707.04 757.952 707.106 758.844 C 704.916 759.51 703.996 759.592 702.326 761.195 C 700.777 757.266 697.567 750.321 697.678 746.492 z"/>
<path transform="translate(0,0)" fill="rgb(221,151,93)" d="M 603.868 599.373 C 605.041 595.74 605.817 592.125 608.233 589.29 C 611.115 591.727 609.598 604.318 609.701 608.58 C 608.613 601.846 609.306 602.539 603.868 599.373 z"/>
<path transform="translate(0,0)" fill="rgb(83,37,9)" d="M 372.054 905.662 C 380.998 905.094 392.4 904.252 401.127 905.934 C 396.492 905.953 390.92 905.392 387.128 907.643 C 381.033 907.272 378.036 906.884 372.054 905.662 z"/>
<path transform="translate(0,0)" fill="rgb(235,182,132)" d="M 799.2 1025.91 C 803.412 1016.65 809 1000.74 812.85 990.738 C 821.712 967.293 830.836 943.946 840.218 920.704 C 843.722 911.979 853.337 884.772 860.202 880.726 C 859.783 1003.08 861.663 1127.85 860.111 1249.84 C 847.879 1245.97 835.887 1243.44 823.666 1239.88 C 755.068 1219.52 686.277 1199.81 617.304 1180.75 C 608.567 1178.25 550.972 1160.7 546.31 1160.98 C 545.049 1158.31 545.116 1151.31 544.98 1147.97 C 547.165 1107.52 545.352 1055.98 544.928 1014.97 L 545.222 963.968 C 549.168 964.678 550.721 965.052 554.593 966.308 C 560.192 967.108 573.106 970.695 579 972.149 L 629.541 984.546 C 685.007 997.731 744.338 1011.24 799.2 1025.91 z"/>
<path transform="translate(0,0)" fill="rgb(252,219,195)" d="M 545.222 963.968 C 549.168 964.678 550.721 965.052 554.593 966.308 C 553.421 976.323 553.87 997.6 553.856 1008.73 C 554.102 1039.98 554.125 1071.24 553.925 1102.5 C 553.94 1112.44 556.1 1154.1 550.669 1159.48 L 546.31 1160.98 C 545.049 1158.31 545.116 1151.31 544.98 1147.97 C 547.165 1107.52 545.352 1055.98 544.928 1014.97 L 545.222 963.968 z"/>
<path transform="translate(0,0)" fill="rgb(206,220,232)" d="M 1292.17 474.295 C 1293.66 481.038 1292.82 522.599 1292.8 531.547 L 1292.84 707.956 C 1292.86 729.445 1292.46 752.739 1293.53 774.221 C 1293.74 778.331 1302 779.853 1305.39 780.59 C 1308.98 781.087 1310.7 780.622 1312.78 782.752 L 1313.12 784.554 C 1289.99 790.725 1258.48 793.977 1233.94 798.5 C 1233.74 808.887 1233.31 820.066 1234.04 830.357 C 1218.89 816.055 1202.88 797.075 1188.44 781.413 C 1180.09 779.037 1164.02 776.916 1154.87 775.307 L 1093.12 763.903 C 1090.62 754.64 1097 735.935 1100 726.738 C 1132.64 626.446 1200.98 538.951 1284.92 476.091 C 1286.44 474.955 1290.3 474.491 1292.17 474.295 z"/>
<path transform="translate(0,0)" fill="rgb(253,253,254)" d="M 1248.6 677.486 C 1252.27 677.958 1254.21 678.242 1256.43 681.22 C 1256.15 685.255 1255.65 684.799 1253.16 688.591 C 1248.71 687.645 1246.2 684.502 1246.03 680.112 L 1248.6 677.486 z"/>
<path transform="translate(0,0)" fill="rgb(206,220,232)" d="M 286.513 1133.63 C 296.725 1133.91 308.293 1133.04 318.166 1134.36 C 326.398 1135.47 336.373 1138.99 344.558 1140.97 C 373.347 1147.93 469.242 1172.88 482.62 1134.12 C 500.841 1133.92 519.063 1133.95 537.283 1134.19 L 537.84 1150.7 L 537.838 1167.33 C 571.732 1175.61 608.159 1187.45 641.998 1197.14 C 683.128 1208.92 725.5 1220.15 766.447 1232.26 L 820.965 1248.13 C 828.722 1250.43 855.319 1258.98 861.819 1258.87 C 874.931 1258.65 902.514 1248.83 916.017 1245.11 C 984.099 1226.2 1052.03 1206.73 1119.79 1186.71 C 1139.6 1181.02 1171.83 1173.28 1190.53 1166.63 L 1192.29 1157.65 C 1197.32 1155.91 1204.85 1155.64 1210.02 1157.05 C 1235.05 1163.88 1259.69 1170.31 1285.23 1175.27 C 1287.44 1175.7 1290.43 1176.99 1291.76 1178.8 C 1287.85 1182.35 1268.97 1185.32 1262.69 1187.17 C 1159.87 1217.5 1056.65 1246.47 953.053 1274.06 C 862.181 1298.35 879.771 1304.85 786.404 1277.9 L 729.78 1262.15 L 475.016 1192.28 L 355.067 1158.48 C 335.97 1153.3 291.217 1142.23 274.156 1135.26 C 278.556 1134.53 282.074 1134.05 286.513 1133.63 z"/>
<path transform="translate(0,0)" fill="rgb(206,220,232)" d="M 1446.38 439.097 C 1449.84 426.013 1452.73 412.743 1455.27 399.591 C 1456.58 392.833 1460.34 385.044 1465.69 380.839 C 1474.95 373.554 1519.82 330.384 1525.41 329.414 C 1530.82 332.775 1532.6 344.215 1534.12 350.954 C 1544.51 397.427 1543.47 446.821 1532.24 492.996 C 1522.8 531.838 1508.79 571.112 1511.13 611.513 C 1515.55 687.762 1569.05 751.844 1587.5 823.952 C 1606.43 897.909 1590.68 978.926 1550.1 1042.86 C 1543.9 1052.75 1532.13 1069.13 1521.73 1074.05 C 1520.16 1068.73 1520.61 1016.8 1520.61 1007.96 C 1520.43 955.109 1520.52 902.262 1520.89 849.417 C 1529 848.699 1537.98 846.682 1546.05 845.103 C 1547.26 832.786 1546.89 810.632 1546.71 798.111 C 1522.77 793.148 1497.89 791.449 1474.02 785.731 C 1465.7 783.736 1456.74 782.337 1448.25 781.376 C 1460.73 779.475 1486.59 782.598 1493.53 778.449 C 1495.65 763.486 1494.91 738.585 1494.9 722.656 L 1494.85 632.49 L 1494.95 512.572 C 1494.96 506.309 1496.26 443.802 1492.72 441.329 C 1487.34 437.579 1455.38 438.471 1446.38 439.097 z"/>
<path transform="translate(0,0)" fill="rgb(248,187,122)" d="M 713.922 444.601 C 722.299 445.523 730.682 446.403 739.068 447.24 C 740.312 490.796 749.778 510.99 797.124 506.57 C 812.55 505.13 819.463 505.913 832.229 495.142 C 846.705 482.928 834.184 446.834 858.836 454.252 C 863.411 459.401 862.077 470.923 868.069 477.102 C 880.282 489.693 895.002 494.951 907.339 508.106 C 891.789 507.686 873.762 504.833 861.307 516.13 C 850.56 525.878 860.26 542.428 868.567 550.145 C 876.936 557.92 884.436 560.62 894.863 564.253 C 899.15 562.413 905.486 559.941 909.246 557.483 C 913.438 555.83 920.288 549.638 922.191 545.345 L 925.223 543 C 927.313 545.663 926.668 549.833 926.244 553.121 C 922.826 579.598 906.651 608.344 885.223 624.428 C 862.055 616.465 845.984 615.778 824.646 630.295 C 816.819 627.665 798.611 622.167 791.838 619.215 C 781.8 608.47 754.108 597.641 740.602 588.698 C 730.826 582.224 720.263 575.228 710.421 568.857 C 721.95 550.935 718.423 501.65 716.824 479.645 C 716.39 473.669 713.182 449.084 713.922 444.601 z"/>
<path transform="translate(0,0)" fill="rgb(7,2,1)" d="M 870.213 586.17 C 877.095 585.727 881.704 585.015 885.35 591.594 C 885.988 598.865 882.608 602.772 878.725 608.868 C 871.44 605.044 869.288 603.514 861.121 604.279 C 856.255 606.308 850.422 609.834 845.561 607.356 L 845.572 605.172 C 850.102 597.289 861.759 589.226 870.213 586.17 z"/>
<path transform="translate(0,0)" fill="rgb(209,140,90)" d="M 401.127 905.934 C 414.273 907.133 422.791 911.139 434.506 916.885 C 460.854 936.949 472.75 954.713 477.412 988.56 C 479.547 1004.05 476.947 1027.21 467.89 1040.72 C 467.357 1041.52 467.298 1041.3 466.194 1041.67 C 465.205 1038.87 466.1 1035.83 466.608 1032.76 C 458.743 1044.51 458.104 1061.44 444.317 1071.85 C 441.861 1073.7 433.862 1080.7 433.149 1082.86 C 434.884 1084.95 436.803 1084.75 440.151 1085.18 C 440.471 1088.36 440.357 1089.45 440.033 1092.65 C 453.418 1098.26 460.674 1102.41 470.281 1114.02 C 470.326 1114.05 470.371 1114.07 470.415 1114.1 L 473.786 1121.48 C 471.33 1125.64 472.599 1124.79 469.045 1126.22 C 465.416 1125.7 464.181 1124.56 461.775 1121.62 L 460.739 1120.11 L 456.778 1121.19 C 456.415 1121.83 455.677 1123.02 455.463 1123.66 L 456.465 1130.9 L 455.3 1134.47 C 451.914 1134.56 449.239 1135.73 446.022 1135.31 C 437.534 1134.2 436.051 1120.29 430.662 1114.54 C 428.691 1112.43 425.964 1112.9 422.987 1112.79 C 424.881 1114.29 428.292 1116.82 429.872 1118.44 L 424.776 1121.24 C 426.258 1126.72 427.117 1129.31 427.301 1134.94 C 426.799 1139.93 427.543 1140.74 424.957 1144.16 C 405.386 1149.45 333.487 1129.17 312.779 1121.9 C 294.82 1115.6 310.64 1095.23 316.784 1084.83 C 316.569 1080.72 316.814 1077.1 314.888 1073.59 L 313.421 1073.69 C 310.574 1077.38 308.777 1083.75 307.198 1088.31 C 303.127 1078.2 296.996 1070.85 292.104 1061.37 C 280.367 1038.61 277.736 1019.4 277.948 994.559 C 281.307 999.356 286.511 997.817 287.653 1001.05 C 289.478 1006.21 288.164 1016.95 290.691 1022.04 C 292.002 1021.26 293.325 1018.88 293.323 1017.49 C 293.293 1001.66 296.983 989.475 302.125 974.758 C 304.642 995.901 301.868 1020.3 317.772 1037.49 L 319.06 1037.5 L 319.414 1033.56 C 319.657 1035.34 319.663 1035.96 320.288 1037.66 L 321.096 1035.16 C 328.437 1047.03 339.702 1055.95 352.935 1060.37 C 365.488 1064.62 392.056 1063.4 404.204 1057.49 C 413.424 1053.01 420.504 1043.7 426.146 1035.47 C 444.816 1008.25 445.902 990.263 441.31 958.774 C 440.549 953.558 438.9 949.19 440.436 944.736 C 450.239 958.743 455.37 967.508 463.388 982.475 L 465.487 982.473 C 466.732 980.771 467.059 980.532 467.739 978.496 C 459.817 955.902 453.583 939.81 433.234 925.041 C 425.203 916.055 399.523 909.043 387.128 907.643 C 390.92 905.392 396.492 905.953 401.127 905.934 z"/>
<path transform="translate(0,0)" fill="rgb(235,182,132)" d="M 361.59 1101.91 C 385.54 1095.93 415.252 1086.26 440.033 1092.65 C 453.418 1098.26 460.674 1102.41 470.281 1114.02 C 470.326 1114.05 470.371 1114.07 470.415 1114.1 L 473.786 1121.48 C 471.33 1125.64 472.599 1124.79 469.045 1126.22 C 465.416 1125.7 464.181 1124.56 461.775 1121.62 L 460.739 1120.11 L 456.778 1121.19 C 456.415 1121.83 455.677 1123.02 455.463 1123.66 L 456.465 1130.9 L 455.3 1134.47 C 451.914 1134.56 449.239 1135.73 446.022 1135.31 C 437.534 1134.2 436.051 1120.29 430.662 1114.54 C 428.691 1112.43 425.964 1112.9 422.987 1112.79 C 424.881 1114.29 428.292 1116.82 429.872 1118.44 L 424.776 1121.24 C 426.258 1126.72 427.117 1129.31 427.301 1134.94 C 423.582 1133.97 417.507 1133.46 412.822 1132.42 C 399.256 1129.39 385.884 1125.56 372.777 1120.94 C 366.966 1118.87 357.42 1115.78 354.702 1110.05 C 355.957 1106.29 358.326 1105.46 361.59 1101.91 z"/>
<path transform="translate(0,0)" fill="rgb(34,2,0)" d="M 411.015 1108.42 C 415.857 1109.78 418.349 1110.78 422.987 1112.79 C 424.881 1114.29 428.292 1116.82 429.872 1118.44 L 424.776 1121.24 C 420.824 1116.27 415.89 1112.48 411.015 1108.42 z"/>
<path transform="translate(0,0)" fill="rgb(83,37,9)" d="M 455.463 1123.66 C 454.091 1119.7 449.656 1114.07 452.089 1110.66 C 456.101 1112.13 458.786 1116.46 460.739 1120.11 L 456.778 1121.19 C 456.415 1121.83 455.677 1123.02 455.463 1123.66 z"/>
<path transform="translate(0,0)" fill="rgb(7,2,1)" d="M 401.127 905.934 C 414.273 907.133 422.791 911.139 434.506 916.885 C 460.854 936.949 472.75 954.713 477.412 988.56 C 479.547 1004.05 476.947 1027.21 467.89 1040.72 C 467.357 1041.52 467.298 1041.3 466.194 1041.67 C 465.205 1038.87 466.1 1035.83 466.608 1032.76 C 458.743 1044.51 458.104 1061.44 444.317 1071.85 C 441.861 1073.7 433.862 1080.7 433.149 1082.86 C 434.884 1084.95 436.803 1084.75 440.151 1085.18 C 440.471 1088.36 440.357 1089.45 440.033 1092.65 C 415.252 1086.26 385.54 1095.93 361.59 1101.91 C 363.444 1095.01 403.611 1088.26 411.458 1084.88 C 419.002 1081.63 423.431 1079.75 429.806 1074.19 C 458.474 1049.21 459.009 1028.19 462.215 994.587 C 466.111 1007.28 466.76 1012.73 467.905 1025.6 C 471.178 1008.58 471.311 995.311 467.739 978.496 C 459.817 955.902 453.583 939.81 433.234 925.041 C 425.203 916.055 399.523 909.043 387.128 907.643 C 390.92 905.392 396.492 905.953 401.127 905.934 z"/>
<path transform="translate(0,0)" fill="rgb(209,140,90)" d="M 762.947 971.853 C 796.093 937.536 827.865 894.486 859.925 859.5 C 860.122 866.573 860.215 873.649 860.202 880.726 C 853.337 884.772 843.722 911.979 840.218 920.704 C 830.836 943.946 821.712 967.293 812.85 990.738 C 809 1000.74 803.412 1016.65 799.2 1025.91 C 744.338 1011.24 685.007 997.731 629.541 984.546 L 579 972.149 C 573.106 970.695 560.192 967.108 554.593 966.308 C 550.721 965.052 549.168 964.678 545.222 963.968 C 544.877 949.686 544.902 935.397 545.296 921.117 C 557.039 923.104 567.958 926.369 579.502 929.111 L 640.596 943.559 C 657.37 947.491 674.257 950.626 690.888 955.198 C 714.809 961.774 738.918 965.383 762.947 971.853 z"/>
<path transform="translate(0,0)" fill="rgb(206,220,232)" d="M 119.71 959.345 C 146.106 985.977 158.478 991.792 195.2 999.94 L 197.258 1004.71 C 194.05 1005.78 191.932 1006.11 189.71 1008.6 C 188.44 1018.55 218.036 1020.27 225.692 1020.44 C 241.293 1020.77 255.724 1017.75 269.624 1010.6 C 273.793 1038.11 279.632 1074.92 302.942 1094.12 C 292.615 1106.86 292.558 1112.93 302.398 1125.98 C 293.613 1125.89 284.514 1125.68 275.758 1125.81 C 255.04 1125.05 234.269 1126.75 213.164 1124.85 C 212.134 1123.42 210.721 1122.33 209.659 1121.07 C 181.729 1087.84 118.188 1003.17 119.71 959.345 z"/>
<path transform="translate(0,0)" fill="rgb(209,140,90)" d="M 640.306 570.567 C 653.104 577.254 669.617 573.226 680.464 564.54 C 710.948 540.127 707.651 495.367 706.323 460.533 C 706.121 455.211 705.785 450.632 706.467 445.264 C 709.53 443.615 710.041 444.297 713.922 444.601 C 713.182 449.084 716.39 473.669 716.824 479.645 C 718.423 501.65 721.95 550.935 710.421 568.857 C 720.263 575.228 730.826 582.224 740.602 588.698 C 754.108 597.641 781.8 608.47 791.838 619.215 C 780.75 618.703 772.17 619.6 762.702 626.58 L 761.719 628.475 C 764.244 630.912 766.856 630.008 770.244 629.548 C 771.195 630.278 773.191 631.715 773.963 632.473 C 757.764 640.416 753.124 649.11 748.612 666.042 C 767.72 645.207 777.092 636.207 807.094 634.926 C 808.375 634.868 809.656 634.835 810.938 634.829 C 793.028 659.604 803.891 687.15 816.096 711.43 C 805.001 706.371 802.955 704.689 794.43 695.473 C 794.051 711.739 789.229 721.811 789.745 738.577 C 781.26 739.51 772.806 740.694 764.392 742.128 L 764.74 734.05 C 773.806 719.283 774.748 716.937 770.851 698.424 C 769.171 690.447 766.413 684.431 759.31 679.986 C 754.992 681.91 751.348 696.848 749.59 701.978 C 745.754 691.365 739.449 681.793 735.461 671.356 C 727.03 649.295 721.252 626.149 713.083 603.98 C 710.433 596.789 707.823 590.853 705.993 583.384 C 696.483 609.108 661.152 626.001 639.151 608.377 C 620.418 593.37 609.633 539.999 606.798 516.931 C 612.354 524.901 619.904 531.291 625.354 540.804 C 630.956 550.581 634.315 561.612 640.306 570.567 z"/>
<path transform="translate(0,0)" fill="rgb(209,140,90)" d="M 495.437 909.43 C 509.574 912.698 523.694 916.037 537.798 919.446 L 537.819 1008.92 C 537.837 1013.27 537.729 1038.59 538.448 1041.83 L 540.216 1042.72 C 540.751 1054.15 517.356 1066.51 518.341 1074.41 C 514.481 1077.2 514.096 1077.59 509.321 1078.12 L 508.445 1078.23 C 504.344 1079.16 490.497 1076.26 487.039 1073.69 C 466.187 1086.44 463.12 1084.68 440.151 1085.18 C 436.803 1084.75 434.884 1084.95 433.149 1082.86 C 433.862 1080.7 441.861 1073.7 444.317 1071.85 C 458.104 1061.44 458.743 1044.51 466.608 1032.76 C 466.1 1035.83 465.205 1038.87 466.194 1041.67 C 467.298 1041.3 467.357 1041.52 467.89 1040.72 C 476.947 1027.21 479.547 1004.05 477.412 988.56 C 472.75 954.713 460.854 936.949 434.506 916.885 C 452.298 907.049 480.724 947.227 490.35 959.541 C 492.454 942.294 496.594 927.415 495.437 909.43 z"/>
<path transform="translate(0,0)" fill="rgb(7,2,1)" d="M 487.039 1073.69 C 496.546 1067.62 509.593 1057.47 517.173 1049.1 C 514.208 1057.66 511.182 1066.2 508.551 1074.87 L 508.445 1078.23 C 504.344 1079.16 490.497 1076.26 487.039 1073.69 z"/>
<path transform="translate(0,0)" fill="rgb(13,13,19)" d="M 538.448 1041.83 L 540.216 1042.72 C 540.751 1054.15 517.356 1066.51 518.341 1074.41 C 514.481 1077.2 514.096 1077.59 509.321 1078.12 L 508.445 1078.23 L 508.551 1074.87 C 519.595 1066.88 535.299 1055.8 538.448 1041.83 z"/>
<path transform="translate(0,0)" fill="rgb(38,46,63)" d="M 544.928 1014.97 C 545.352 1055.98 547.165 1107.52 544.98 1147.97 C 540.859 1142.94 545.531 1130.62 543.437 1127.05 C 540.698 1128.48 540.425 1129.43 538.686 1132.16 L 539.09 1133.04 L 542.219 1133.27 L 542.384 1134.63 L 539.559 1137.11 L 539.316 1143.47 C 539.213 1146.75 538.909 1147.57 537.84 1150.7 L 537.283 1134.19 C 519.063 1133.95 500.841 1133.92 482.62 1134.12 C 482.108 1126.16 479.699 1115.33 470.415 1114.1 C 470.371 1114.07 470.326 1114.05 470.281 1114.02 C 460.674 1102.41 453.418 1098.26 440.033 1092.65 C 440.357 1089.45 440.471 1088.36 440.151 1085.18 C 463.12 1084.68 466.187 1086.44 487.039 1073.69 C 490.497 1076.26 504.344 1079.16 508.445 1078.23 L 509.321 1078.12 C 514.096 1077.59 514.481 1077.2 518.341 1074.41 C 528.544 1068.31 525.951 1067.02 538.362 1067.03 C 539.133 1066.19 539.848 1065.32 540.528 1064.4 C 541.598 1065.84 542.062 1066.14 543.398 1067.29 C 544.426 1044.36 541.374 1040.75 544.928 1014.97 z"/>
<path transform="translate(0,0)" fill="url(#Gradient4)" d="M 513.877 622.295 L 514.164 623.408 C 518.894 617.48 527.752 615.956 534.314 619.199 C 522.082 631.448 509.238 638.619 497.553 653.827 C 481.638 674.541 471.928 695.618 460.167 718.729 C 456.896 724.817 444.375 734.705 439.987 741.266 C 429.304 757.237 418.275 777.757 406.583 792.974 C 395.794 807.016 375.861 823.857 362.776 836.327 C 355.038 843.702 349.393 847.436 342.184 856.094 L 342.305 856.909 C 347.089 856.329 347.437 854.986 353.263 854.99 L 355.055 855.94 C 355.095 862.351 337.939 878.746 333.023 883.801 C 317.634 899.628 308.647 924.822 294.889 940.521 C 292.101 940.839 291.602 939.885 289.302 937.923 C 300.623 907.638 313.546 889.218 336.33 867.147 C 325.17 869.774 320.125 872.626 309.667 877.546 C 328.325 849.569 350.262 831.897 373.854 808.097 C 404.828 776.849 429.321 746.808 451.231 708.701 C 462.982 688.263 492.711 632.558 513.877 622.295 z"/>
<path transform="translate(0,0)" fill="rgb(38,46,63)" d="M 881.465 516.263 C 892.052 513.314 915.474 510.384 922.174 521.158 C 931.023 525.397 925.435 535.907 920.074 540.223 L 918.894 543.47 L 922.191 545.345 C 920.288 549.638 913.438 555.83 909.246 557.483 C 908.078 556.003 906.759 555.464 905.108 554.539 C 885.473 562.957 861.943 546.422 865.251 524.413 C 866.459 516.382 873.933 513.854 881.465 516.263 z"/>
<path transform="translate(0,0)" fill="rgb(245,241,241)" d="M 881.465 516.263 C 892.052 513.314 915.474 510.384 922.174 521.158 C 914.302 524.768 891.029 525.106 883.109 521.91 C 880.759 519.301 881.378 520.581 881.465 516.263 z"/>
<path transform="translate(0,0)" fill="rgb(13,13,19)" d="M 920.074 540.223 L 918.894 543.47 L 922.191 545.345 C 920.288 549.638 913.438 555.83 909.246 557.483 C 908.078 556.003 906.759 555.464 905.108 554.539 C 910.659 550.146 914.28 544.068 920.074 540.223 z"/>
<path transform="translate(0,0)" fill="rgb(209,140,90)" d="M 450.047 879.636 C 447.357 874.902 448.762 864.513 447.593 858.388 C 441.658 827.293 439.414 793.158 455.89 764.693 C 454.188 776.762 451.466 825.914 457.168 834.464 C 462.308 834.646 466.157 827.537 469.181 823.554 C 470.119 834.086 472.562 839.578 476.726 849.18 C 472.061 855.625 455.989 874.846 450.047 879.636 z"/>
<path transform="translate(0,0)" fill="rgb(248,226,194)" d="M 598.645 718.959 C 626.679 710.012 654.677 708.198 682.35 719.871 C 701.399 728.265 717.986 739.869 720.599 762.249 L 719.375 764.327 C 716.237 763.856 709.588 756.683 706.099 753.711 C 702.79 750.348 701.506 749.253 697.678 746.492 C 693.072 740.029 686.618 728.584 679.659 725.988 C 674.695 726.654 659.571 721.754 651.522 721.097 C 634.896 719.738 618.107 723.668 601.874 722.712 C 600.244 722.616 599.406 720.358 598.645 718.959 z"/>
<path transform="translate(0,0)" fill="rgb(248,226,194)" d="M 567.289 570.774 C 570.407 570.794 571.966 570.818 575.033 570.327 C 575.854 572.943 575.345 572.719 574.407 575.927 C 563.303 588.212 533.119 609.597 518.126 617.203 C 523.899 616.717 528.689 616.093 534.486 616.913 L 535.56 618.019 L 534.314 619.199 C 527.752 615.956 518.894 617.48 514.164 623.408 L 513.877 622.295 C 514.429 620.443 514.303 620.432 514.109 618.478 C 508.715 614.564 496.243 619.801 490.332 621.948 C 519.813 594.401 532.8 590.152 567.289 570.774 z"/>
<path transform="translate(0,0)" fill="rgb(209,140,90)" d="M 484.503 811.807 C 485.668 811.037 486.855 810.303 488.064 809.604 C 494.665 805.81 516.364 797.63 524.425 792.769 C 525.806 793.144 527.02 793.474 528.068 793.759 C 516.789 809.085 496.097 829.749 482.174 843.426 C 475.002 823.08 477.172 824.582 473.307 806.689 C 473.325 805.663 474.49 799.379 474.701 797.085 L 476.329 794.857 L 478.15 794.586 C 479.524 796.394 482.991 808.046 484.503 811.807 z"/>
<path transform="translate(0,0)" fill="rgb(252,219,195)" d="M 591.783 533.082 L 595.709 535.256 C 596.767 539.455 577.818 571.926 574.407 575.927 C 575.345 572.719 575.854 572.943 575.033 570.327 C 571.966 570.818 570.407 570.794 567.289 570.774 C 570.03 568.781 570.933 569.034 571.387 565.855 C 569.277 563.79 560.959 562.186 557.098 560.947 C 572.015 554.56 581.832 545.445 591.783 533.082 z"/>
<path transform="translate(0,0)" fill="rgb(209,140,90)" d="M 679.303 778.815 C 679.8 781.766 679.672 782.345 681.587 784.448 C 685.224 784.485 687.267 779.945 690.005 779.373 C 695.288 778.27 698.43 779.988 704.035 777.693 C 701.342 795.791 692.339 795.162 676.167 795.882 C 677.428 790.096 678.709 784.73 679.303 778.815 z"/>
<path transform="translate(0,0)" fill="rgb(209,140,90)" d="M 422.987 1112.79 C 425.964 1112.9 428.691 1112.43 430.662 1114.54 C 436.051 1120.29 437.534 1134.2 446.022 1135.31 C 449.239 1135.73 451.914 1134.56 455.3 1134.47 L 456.465 1130.9 L 456.762 1136.07 L 455.424 1140.6 C 450.857 1145.34 440.74 1144.74 433.961 1145.09 C 434.284 1136 434.368 1126.53 429.872 1118.44 C 428.292 1116.82 424.881 1114.29 422.987 1112.79 z"/>
<path transform="translate(0,0)" fill="rgb(209,140,90)" d="M 460.637 787.333 L 462.066 788.636 L 462.662 788.543 C 464.505 788.272 464.971 788.079 466.781 788.649 C 470.257 794.167 467.683 795.31 471.461 798.051 C 472.283 797.823 474.007 797.405 474.701 797.085 C 474.49 799.379 473.325 805.663 473.307 806.689 C 469.608 811.001 467.797 817.027 463.411 819.771 L 461.712 819.303 C 461.377 812.518 459.954 792.948 460.637 787.333 z"/>
<path transform="translate(0,0)" fill="rgb(209,140,90)" d="M 455.463 1123.66 C 455.677 1123.02 456.415 1121.83 456.778 1121.19 L 460.739 1120.11 L 461.775 1121.62 C 464.181 1124.56 465.416 1125.7 469.045 1126.22 C 472.599 1124.79 471.33 1125.64 473.786 1121.48 C 474.734 1131.41 473.912 1136.52 464.727 1142.29 C 461.825 1139.1 462.456 1136.63 459.062 1134.51 L 456.762 1136.07 L 456.465 1130.9 L 455.463 1123.66 z"/>
<path transform="translate(0,0)" fill="rgb(34,2,0)" d="M 455.463 1123.66 C 455.677 1123.02 456.415 1121.83 456.778 1121.19 L 460.739 1120.11 L 461.775 1121.62 C 463.811 1128.86 464.816 1134.71 464.727 1142.29 C 461.825 1139.1 462.456 1136.63 459.062 1134.51 L 456.762 1136.07 L 456.465 1130.9 L 455.463 1123.66 z"/>
<path transform="translate(0,0)" fill="rgb(209,140,90)" d="M 706.099 753.711 C 709.588 756.683 716.237 763.856 719.375 764.327 L 720.599 762.249 C 720.618 769.303 719.316 781.123 711.983 784.32 C 708.678 782.019 708.522 766.398 707.106 758.844 C 707.04 757.952 706.317 754.768 706.099 753.711 z"/>
<path transform="translate(0,0)" fill="rgb(206,220,232)" d="M 114.162 928.325 C 117.844 930.546 125.735 937.234 128.706 940.481 C 128.805 942.838 129.194 943.691 128.233 945.581 C 123.386 944.539 117.654 942.633 112.829 941.172 C 112.972 935.846 112.957 933.479 114.162 928.325 z"/>
<path transform="translate(0,0)" fill="rgb(189,189,188)" d="M 195.2 999.94 C 197.976 1000.08 204.593 1000.03 206.587 1001.45 C 203.53 1003.53 200.869 1003.86 197.258 1004.71 L 195.2 999.94 z"/>
<path transform="translate(0,0)" fill="rgb(189,189,188)" d="M 128.706 940.481 C 132.928 943.62 137.199 946.693 141.517 949.697 L 128.233 945.581 C 129.194 943.691 128.805 942.838 128.706 940.481 z"/>
<path transform="translate(0,0)" fill="rgb(189,189,188)" d="M 237.692 666.084 L 239.833 669.719 L 228.187 677.163 C 231.289 673.266 234.375 669.803 237.692 666.084 z"/>
<path transform="translate(0,0)" fill="rgb(209,140,90)" d="M 867.851 891.224 C 866.615 879.248 866.973 870.708 868.345 858.759 L 931.605 934.068 C 940.515 944.594 956.49 964.258 966.269 973.072 C 988.641 965.533 1000.28 963.807 1022.4 958.55 L 1085.21 943.523 C 1100.23 940.036 1115.22 935.536 1130.35 932.669 C 1148.7 929.189 1166.06 923.088 1184.31 919.259 C 1183.92 934.658 1183.83 950.064 1184.05 965.467 L 1184.08 1094.33 C 1184.13 1114.31 1183.45 1140.05 1184.41 1159.59 C 1151.33 1167.71 1118.21 1179.42 1085.11 1187.67 C 1079.52 1189.07 1073.96 1190.62 1068.47 1192.38 C 1052.71 1198.44 1031.34 1201.89 1015.77 1207.7 C 1007.51 1210.89 990.035 1214.65 980.349 1217.53 C 942.921 1228.65 905.339 1239.25 867.614 1249.31 C 868.204 1239.19 867.722 1224.7 867.716 1214.32 L 867.833 1154.85 L 867.89 979.367 C 867.887 950.354 867.067 920.054 867.851 891.224 z"/>
<path transform="translate(0,0)" fill="rgb(176,112,74)" d="M 867.851 891.224 C 866.615 879.248 866.973 870.708 868.345 858.759 L 931.605 934.068 C 940.515 944.594 956.49 964.258 966.269 973.072 C 988.641 965.533 1000.28 963.807 1022.4 958.55 L 1085.21 943.523 C 1100.23 940.036 1115.22 935.536 1130.35 932.669 C 1148.7 929.189 1166.06 923.088 1184.31 919.259 C 1183.92 934.658 1183.83 950.064 1184.05 965.467 C 1151.17 970.226 1115.22 981.196 1082.95 988.686 C 1031.8 1000.55 981.232 1011.81 930.329 1024.85 C 927.352 1014.98 920.376 1001.19 916.25 991.038 C 905.856 965.455 894.579 940.46 884.236 914.797 C 880.841 906.375 874.228 895.435 870.008 885.621 L 868.96 886.166 C 868.818 888.336 868.471 889.196 867.851 891.224 z"/>
<path transform="translate(0,0)" fill="rgb(235,182,132)" d="M 1015.03 1122.42 C 1035.41 1122.28 1046.53 1115.98 1066.41 1111.27 C 1066.74 1124.55 1065.61 1183.91 1068.47 1192.38 C 1052.71 1198.44 1031.34 1201.89 1015.77 1207.7 C 1015.62 1207.59 1015.45 1207.5 1015.33 1207.36 C 1012.82 1204.23 1014.96 1133.38 1015.03 1122.42 z"/>
<path transform="translate(0,0)" fill="rgb(253,253,254)" d="M 1311.09 445.398 C 1322.63 444.885 1334.19 445.107 1345.71 446.063 C 1345.46 451.377 1345.8 456.179 1346.1 461.464 C 1357.15 463.701 1430.11 463.945 1440.89 461.681 C 1441.71 456.59 1441.73 450.519 1441.89 445.293 L 1488.07 445.974 C 1485.88 483.191 1487.67 531.562 1487.73 569.563 L 1487.71 761.711 L 1487.63 773.904 C 1426.01 774.835 1362.76 774.096 1301.04 774.05 L 1301.02 542.902 C 1301.01 529.318 1299.77 455.772 1302.66 447.848 C 1306.05 445.256 1306.2 445.998 1311.09 445.398 z"/>
<path transform="translate(0,0)" fill="rgb(13,13,19)" d="M 1386.65 483.179 C 1407.72 480.784 1433.2 494.682 1418.63 518.994 C 1411.84 530.312 1404.1 527.58 1398.83 543.214 C 1388.8 551.574 1382.76 542.19 1385.34 531.285 L 1385.62 530.131 C 1391.27 522.979 1418.41 504.691 1396.66 498.172 C 1393.27 497.16 1389.62 497.564 1386.53 499.291 C 1381.84 501.946 1381.13 506.029 1379.63 511.004 C 1372.02 511.087 1360.62 511.2 1366.34 498.442 C 1370.28 489.665 1377.81 486.07 1386.65 483.179 z"/>
<path transform="translate(0,0)" fill="rgb(13,13,19)" d="M 1324.12 669.232 C 1332.96 669.059 1339.74 668.692 1348.52 670.08 C 1348.79 676.386 1349.82 691.37 1347.72 696.686 C 1340.92 699.01 1330.45 698.166 1323.14 697.811 C 1322.75 689.724 1322.02 676.872 1324.12 669.232 z"/>
<path transform="translate(0,0)" fill="rgb(253,253,254)" d="M 1327.56 672.364 C 1332.91 672.805 1339.31 672.847 1344.76 673.025 C 1344.54 679.572 1345.41 688.519 1344.07 694.641 C 1338.47 694.979 1331.91 694.753 1326.23 694.699 C 1326.1 687.985 1325.6 678.662 1327.56 672.364 z"/>
<path transform="translate(0,0)" fill="rgb(13,13,19)" d="M 1323.12 714.047 C 1351.66 712.414 1350.12 713.555 1348.56 740.519 C 1341.13 742.763 1331.02 741.958 1323.1 741.755 C 1322.88 732.52 1322.89 723.281 1323.12 714.047 z"/>
<path transform="translate(0,0)" fill="rgb(253,253,254)" d="M 1326.39 717.909 L 1344.72 717.727 C 1343.92 725.377 1344.23 730.575 1344.54 738.219 C 1337.86 738.057 1332.81 738.28 1326.21 738.67 C 1326.23 731.75 1326.29 724.829 1326.39 717.909 z"/>
<path transform="translate(0,0)" fill="rgb(13,13,19)" d="M 1323.1 584.616 C 1331.7 584.753 1340.31 584.943 1348.91 585.187 C 1348.91 594.401 1348.94 601.854 1348.05 611.016 C 1339.99 612.311 1331.28 612.041 1323.08 612.068 C 1322.6 602.82 1322.89 593.867 1323.1 584.616 z"/>
<path transform="translate(0,0)" fill="rgb(253,253,254)" d="M 1326.15 587.346 C 1331.39 587.964 1339.3 587.861 1344.77 587.951 C 1344.13 593.954 1344.41 602.571 1344.42 608.792 C 1338.74 609.091 1331.97 609.025 1326.2 609.123 L 1326.15 587.346 z"/>
<path transform="translate(0,0)" fill="rgb(13,13,19)" d="M 1330.2 627.452 C 1337.45 627.215 1340.86 627.07 1348.17 628.124 C 1348.67 634.405 1350.38 646.965 1347.88 652.839 C 1347.23 654.366 1345.21 654.365 1343.05 654.94 L 1322.98 654.967 C 1323 645.883 1321.5 638.538 1323.8 629.783 C 1326.18 627.132 1325.93 627.905 1330.2 627.452 z"/>
<path transform="translate(0,0)" fill="rgb(245,241,241)" d="M 1326.28 630.586 L 1344.4 630.779 C 1344.27 637.225 1344.66 645.353 1344.81 651.93 C 1337.35 651.241 1333.59 651.359 1326.26 651.712 C 1326.11 644.79 1326.25 637.537 1326.28 630.586 z"/>
<path transform="translate(0,0)" fill="rgb(7,2,1)" d="M 1365.05 642.249 C 1375.91 642.22 1456.17 640.473 1460.09 644.483 L 1459.72 647.889 C 1444.89 648.932 1425.9 648.541 1410.85 648.67 C 1397.78 648.782 1379.28 649.353 1366.55 648.433 C 1364.39 646.277 1365.1 646.098 1365.05 642.249 z"/>
<path transform="translate(0,0)" fill="rgb(7,2,1)" d="M 1364.69 684.299 C 1377.03 684.013 1451.8 683.203 1459.06 685.496 C 1460.02 687.681 1459.78 686.869 1458.72 689.842 C 1435.65 690.863 1412.18 690.415 1389.08 690.637 C 1381.83 690.706 1373.85 690.911 1366.72 690.106 C 1364.3 687.773 1365.06 688.622 1364.69 684.299 z"/>
<path transform="translate(0,0)" fill="rgb(7,2,1)" d="M 1364.78 726.817 C 1377.21 727.477 1454.45 725.451 1459.44 728.453 L 1459.64 731.984 C 1451.46 733.348 1428.48 733.077 1419.58 732.98 C 1403.16 732.801 1383.21 733.598 1367.04 732.627 C 1364.87 730.629 1365.49 730.464 1364.78 726.817 z"/>
<path transform="translate(0,0)" fill="rgb(7,2,1)" d="M 1364.86 598.138 C 1378.52 598.352 1455.28 596.778 1459.77 599.978 L 1459.14 602.591 C 1447.79 603.905 1429.53 603.604 1417.72 603.619 C 1400.83 603.784 1383.95 603.784 1367.06 603.618 C 1364.67 601.772 1365.44 602.249 1364.86 598.138 z"/>
<path transform="translate(0,0)" fill="rgb(7,2,1)" d="M 1390.06 551.867 C 1394.56 552.089 1399.24 553.682 1401.74 557.671 C 1403.06 559.734 1403.37 562.287 1402.57 564.604 C 1401.33 568.266 1398.5 569.727 1395.37 571.485 C 1379.79 570.837 1376.6 558.354 1390.06 551.867 z"/>
<path transform="translate(0,0)" fill="rgb(235,182,132)" d="M 545.508 788.178 C 594.669 796.516 642.878 807.477 691.628 817.708 L 798.459 839.211 C 817.859 843.204 836.673 847.889 856.19 851.477 C 834.511 879.236 809.088 905.624 786.865 933.106 C 778.996 942.837 769.579 953.996 760.739 962.802 C 756.061 963.542 578.089 921.305 557.164 916.223 L 493.895 901.146 C 478.599 897.379 468.49 893.962 452.548 891.224 C 457.91 880.416 536.021 796.383 545.508 788.178 z"/>
<path transform="translate(0,0)" fill="rgb(235,182,132)" d="M 1182.14 788.404 C 1184.44 788.968 1268.86 880.717 1277.26 890.373 C 1260.23 893.41 1249.22 896.864 1232.87 900.824 L 1170.26 915.514 C 1101.98 931.536 1035.68 946.472 967.416 963.846 C 961.924 958.034 955.141 948.871 949.429 942.417 C 923.086 912.651 898.641 880.176 871.067 851.613 C 896.101 847.483 921.016 841.085 946.11 836.434 C 1024.8 821.853 1103.36 802.057 1182.14 788.404 z"/>
<path transform="translate(0,0)" fill="rgb(248,187,122)" d="M 201.912 711.332 C 232.284 677.804 258.525 664.539 304.848 668.584 C 260.007 700.022 237.538 737.749 228.394 791.684 C 221.136 834.49 232.358 882.455 262.758 913.833 L 269.393 919.617 C 273.453 922.15 278.977 926.867 282.855 929.981 C 276.063 952.02 269.08 978.667 269.045 1001.84 C 242.025 1011.72 232.16 1012.37 203.273 1010.83 C 219.973 1001.9 225.163 997.17 239.669 985.421 C 189.783 999.907 160.472 985.271 124.52 952.275 C 143.149 959.095 152.946 958.283 172.309 955.56 C 121.729 935.099 101.826 899.551 97.5299 846.707 C 108.758 861.364 118.244 869.905 132.071 882.049 C 112.318 836.842 107.837 802.865 125.505 756.461 C 130.487 741.707 137.178 730.713 144.713 717.222 C 144.35 746.43 146.757 751.522 154.175 779.134 C 156.029 753.946 151.883 753.888 164.379 727.317 C 174.406 701.84 198.183 679.234 223.247 668.607 C 223.973 668.296 224.707 668.004 225.449 667.733 C 216.016 685.785 210.385 690.862 201.912 711.332 z"/>
<path transform="translate(0,0)" fill="rgb(209,140,90)" d="M 125.505 756.461 C 129.121 761.975 128.497 769.064 128.79 775.439 C 130.645 815.756 141.907 859.409 167.893 891.162 C 174.439 899.161 181.613 906.485 188.789 913.874 C 168.204 907.855 157.623 901.976 139.056 890.838 C 156.986 921.725 190.701 942.232 225.853 946.885 C 216.126 951.847 199.402 954.937 194.768 959.797 L 195.256 961.166 C 203.087 964.389 230.62 964.735 239.309 960.693 C 256.88 952.52 260.178 932.214 269.393 919.617 C 273.453 922.15 278.977 926.867 282.855 929.981 C 276.063 952.02 269.08 978.667 269.045 1001.84 C 242.025 1011.72 232.16 1012.37 203.273 1010.83 C 219.973 1001.9 225.163 997.17 239.669 985.421 C 189.783 999.907 160.472 985.271 124.52 952.275 C 143.149 959.095 152.946 958.283 172.309 955.56 C 121.729 935.099 101.826 899.551 97.5299 846.707 C 108.758 861.364 118.244 869.905 132.071 882.049 C 112.318 836.842 107.837 802.865 125.505 756.461 z"/>
<path transform="translate(0,0)" fill="rgb(248,226,194)" d="M 201.912 711.332 C 232.284 677.804 258.525 664.539 304.848 668.584 C 260.007 700.022 237.538 737.749 228.394 791.684 C 221.136 834.49 232.358 882.455 262.758 913.833 C 259.828 916.31 261.217 915.822 257.586 915.817 C 254.384 914.367 252.711 912.787 250.521 910.172 C 215.564 869.988 206.641 825.663 218.27 774.359 C 225.132 744.085 233.696 724.555 252.444 699.829 C 255.642 695.611 261.067 692.084 261.571 686.677 L 260.179 685.568 C 227.361 701.912 202.575 712.671 184.802 747.225 C 183.963 748.856 182.906 749.974 181.166 750.232 C 177.617 745.535 181.14 733.265 182.438 727.713 C 183.743 720.806 188.362 714.661 188.563 709.015 L 187.154 707.903 L 184.494 709.07 C 182.206 707.421 181.832 706.889 179.147 706.593 C 170.22 712.72 168.268 727.611 164.829 727.966 L 164.379 727.317 C 174.406 701.84 198.183 679.234 223.247 668.607 C 223.973 668.296 224.707 668.004 225.449 667.733 C 216.016 685.785 210.385 690.862 201.912 711.332 z"/>
<path transform="translate(0,0)" fill="rgb(235,182,132)" d="M 184.494 709.07 L 187.154 707.903 L 188.563 709.015 C 188.362 714.661 183.743 720.806 182.438 727.713 L 179.928 724.394 C 177.745 724.179 176.724 724.181 174.527 724.253 C 177.74 720.806 182.368 713.341 184.494 709.07 z"/>
<path transform="translate(0,0)" fill="rgb(206,220,232)" d="M 1283.19 884.152 C 1276.35 877.956 1258.29 861.96 1264.41 852.447 C 1276.87 850.9 1327.6 866.801 1343.98 867.775 C 1355.09 868.435 1373.78 875.629 1387.24 876.429 C 1387.33 885.524 1387.2 895.991 1387.74 904.959 L 1387.57 1125.69 C 1348.11 1126.2 1303.77 1126.52 1264.4 1125.62 C 1264.93 1107.31 1264.41 1086.36 1264.41 1067.79 C 1264 1012.35 1264.13 956.917 1264.8 901.486 C 1275.2 899.951 1280.57 898.368 1290.05 894.461 L 1283.19 884.152 z"/>
<path transform="translate(0,0)" fill="rgb(152,170,192)" d="M 1283.19 884.152 C 1276.35 877.956 1258.29 861.96 1264.41 852.447 C 1276.87 850.9 1327.6 866.801 1343.98 867.775 C 1355.09 868.435 1373.78 875.629 1387.24 876.429 C 1387.33 885.524 1387.2 895.991 1387.74 904.959 C 1385.82 903.738 1365.38 902.51 1360.83 901.552 C 1343.42 897.984 1326.17 893.587 1308.74 890.022 C 1300.66 888.368 1291.12 881.041 1283.19 884.152 z"/>
<path transform="translate(0,0)" fill="rgb(248,187,122)" d="M 705.762 349.905 C 752.945 332.243 794.3 323.992 842.401 345.747 C 861.328 354.307 887.003 373.972 893.724 394.183 C 886.27 396.169 875.701 394.877 873.591 406.725 L 874.232 409.378 C 879.257 411.085 893.049 397.948 900.04 407.443 C 900.861 411.495 900.365 412.84 899.502 416.758 C 893.523 419.808 883.694 418.004 877.541 421.566 C 869.172 426.411 865.83 434.475 862.974 443.258 C 855.978 442.996 850.473 442.767 843.429 443.222 C 842.603 433.772 838.12 422.792 827.885 420.258 C 806.708 415.016 781.882 417.169 760.218 418.305 C 746.8 419.008 742.074 422.238 739.58 435.286 C 732.279 434.205 724.967 433.204 717.644 432.284 L 706.458 431.619 C 710.048 416.041 714.755 408.239 723.537 395.193 L 725.767 390.981 L 723.491 390.343 C 684.069 412.515 705.132 476.459 698.182 512.495 C 694.338 532.427 688.559 551.352 669.192 562.188 C 639.501 577.689 643.178 556.373 633.897 540.095 C 622.182 519.547 600.77 502.574 594.862 478.372 C 591.264 465.839 598.39 445.687 597.45 441.548 L 598.032 441.065 C 597.341 438.796 596.083 435.801 595.207 433.517 C 604.828 422.503 658.243 378.273 659.862 372.428 C 654.88 373.364 649.278 374.842 644.294 376.032 C 650.992 369.261 654.249 366.532 662.839 362.47 C 685.823 348.403 713.675 361.517 718.278 359.617 C 715.334 355.741 709.949 352.516 705.762 349.905 z"/>
<path transform="translate(0,0)" fill="url(#Gradient3)" d="M 598.032 441.065 C 601.082 439.601 602.932 438.664 604.324 435.437 C 606.088 431.35 611.99 432.725 615.673 428.931 C 623.48 420.887 629.584 410.761 637.075 402.329 C 639.786 399.39 648.38 399.201 651.046 396.705 C 663.912 384.659 683.132 350.639 703.456 371.374 C 688.809 388.975 671.082 399.879 666.908 424.465 C 666.023 429.678 665.109 437.277 668.3 441.762 L 669.812 441.725 C 672.647 437.311 671.894 431.536 673.552 426.828 C 678.278 413.408 697.165 383.029 711.616 380.257 C 714.458 381.736 713.681 383.352 714.293 383.447 C 718.298 384.068 721.86 383.437 725.423 385.985 C 726.907 388.681 726.665 387.436 725.767 390.981 L 723.491 390.343 C 684.069 412.515 705.132 476.459 698.182 512.495 C 694.338 532.427 688.559 551.352 669.192 562.188 C 639.501 577.689 643.178 556.373 633.897 540.095 C 622.182 519.547 600.77 502.574 594.862 478.372 C 591.264 465.839 598.39 445.687 597.45 441.548 L 598.032 441.065 z"/>
<path transform="translate(0,0)" fill="rgb(209,140,90)" d="M 706.458 431.619 C 710.048 416.041 714.755 408.239 723.537 395.193 C 724.281 409.353 718.028 420.695 717.644 432.284 L 706.458 431.619 z"/>
<path transform="translate(0,0)" fill="rgb(248,226,194)" d="M 662.839 362.47 L 663.12 364.067 L 660.649 366.14 L 660.768 367.819 L 664.21 370.112 L 664.107 370.564 L 662.208 368.89 L 661.778 371.906 L 659.862 372.428 C 654.88 373.364 649.278 374.842 644.294 376.032 C 650.992 369.261 654.249 366.532 662.839 362.47 z"/>
<path transform="translate(0,0)" fill="rgb(7,2,1)" d="M 785.314 385.227 C 792.657 384.543 799.515 383.672 805.391 389.16 L 805.241 390.8 C 799.937 395.98 792.255 393.632 783.77 397.03 L 782.678 397.477 C 778.457 400.19 773.488 404.999 769.162 401.433 C 767.618 393.107 778.765 387.114 785.314 385.227 z"/>
<path transform="translate(0,0)" fill="rgb(152,170,192)" d="M 1506.92 852.298 C 1509.24 851.788 1509.32 851.578 1511.58 852.471 C 1514.51 858.012 1512.92 867.363 1512.96 873.692 C 1513.09 899.298 1513.01 924.911 1513.01 950.518 L 1512.84 1125.53 C 1476.71 1126.06 1440.57 1126.16 1404.43 1125.83 C 1401.96 1125.73 1399.88 1125.55 1397.42 1125.3 C 1396.98 1124.82 1396.53 1124.34 1396.09 1123.86 C 1395.45 1053.96 1395.21 942.087 1395.97 876.34 C 1410.35 874.611 1426.37 870.28 1440.65 867.067 L 1506.92 852.298 z"/>
<path transform="translate(0,0)" fill="rgb(176,112,74)" d="M 867.944 735.039 C 904.45 737.862 928.494 744.18 962.519 749.683 C 1029.75 760.384 1096.82 772.04 1163.72 784.648 C 1147.43 789.115 1126.5 792.399 1109.75 795.248 C 1100.86 796.559 1085.64 800.692 1076.26 802.693 L 996.645 819.551 C 972.851 824.383 948.953 828.175 924.925 833.778 C 906.152 838.155 885.479 839.108 867.22 846.418 C 866.49 811.554 867.822 770.596 867.944 735.039 z"/>
<path transform="translate(0,0)" fill="rgb(206,220,232)" d="M 1252.92 904.387 L 1255.92 904.204 C 1258.79 907.556 1257.41 968.899 1257.42 978.075 L 1257.24 1125.6 C 1235.86 1125.44 1214.49 1125.53 1193.12 1125.88 C 1190.34 1122.69 1191.63 1063.95 1191.63 1056.3 C 1191.81 1010.31 1191.64 964.327 1191.12 918.342 C 1212 915.828 1232.88 906.778 1252.92 904.387 z"/>
<path transform="translate(0,0)" fill="rgb(158,99,68)" d="M 859.194 735.616 L 860.119 735.906 C 861.556 738.502 861.152 834.194 860.956 846.089 C 841.887 839.04 821.723 838.064 802.262 833.493 C 769.645 825.832 736.964 820.255 704.474 812.175 C 690.564 809.822 680.138 809.293 666.98 803.434 C 685.918 803.268 703.137 803.362 718.567 788.572 C 726.803 780.677 729.173 768.163 728.984 757.102 C 744.732 754.096 762.791 751.965 777.803 748.774 C 805.846 742.815 830.491 738.559 859.194 735.616 z"/>
<path transform="translate(0,0)" fill="url(#Gradient2)" d="M 827.69 647.948 C 828.012 644.213 828.721 639.057 831.369 636.574 C 855.673 613.782 894.614 631.782 911.616 653.224 C 931.484 678.277 934.807 708.498 934.022 737.567 C 925.149 735.6 907.703 731.523 898.914 730.372 C 892.919 729.483 883.412 728.367 878.614 725.002 L 878.477 722.976 C 881.056 719.106 886.924 716.198 891.209 712.538 L 890.982 710.235 C 879.755 713.022 868.991 714.998 857.887 710.547 C 850.07 707.415 846.456 701.001 850.097 693.08 C 854.115 683.947 858.935 681.717 867.33 676.097 L 867.014 674.289 L 864.446 673.052 C 856.561 675.955 852.503 678.434 846.154 684.011 C 844.516 682.431 842.86 680.869 841.187 679.326 C 839.509 681.35 837.81 683.357 836.09 685.346 C 826.276 666.068 846.272 657.506 859.097 649.797 L 859.39 648.527 C 854.903 647.253 846.232 649.745 841.776 651.385 L 828.788 659.964 L 827.69 647.948 z"/>
<path transform="translate(0,0)" fill="rgb(221,151,93)" d="M 850.097 693.08 C 853.029 696.962 856.403 700.069 859.873 703.47 C 873.144 706.523 885.659 701.827 892.305 709.199 L 890.982 710.235 C 879.755 713.022 868.991 714.998 857.887 710.547 C 850.07 707.415 846.456 701.001 850.097 693.08 z"/>
<path transform="translate(0,0)" fill="rgb(209,140,90)" d="M 892.305 709.199 C 895.942 708.21 896.297 707.406 899.155 708.699 C 898.539 720.204 893.501 716.153 898.914 730.372 C 892.919 729.483 883.412 728.367 878.614 725.002 L 878.477 722.976 C 881.056 719.106 886.924 716.198 891.209 712.538 L 890.982 710.235 L 892.305 709.199 z"/>
<path transform="translate(0,0)" fill="rgb(221,151,93)" d="M 841.187 679.326 C 846.344 677.03 852.332 670.575 858.498 670.015 C 861.318 669.759 861.958 671.075 864.446 673.052 C 856.561 675.955 852.503 678.434 846.154 684.011 C 844.516 682.431 842.86 680.869 841.187 679.326 z"/>
<path transform="translate(0,0)" fill="rgb(221,151,93)" d="M 827.69 647.948 C 834.401 650.463 834.755 646.973 841.776 651.385 L 828.788 659.964 L 827.69 647.948 z"/>
<path transform="translate(0,0)" fill="rgb(206,220,232)" d="M 1373.86 781.374 C 1397.03 777.753 1430.11 786.356 1453.15 790.468 C 1472.47 793.917 1503.86 796.819 1522.25 802.103 L 1403.41 826.791 C 1398.8 827.525 1396.87 828.445 1392.57 830.206 C 1368.28 823.556 1343.24 820.451 1318.66 814.333 C 1298.71 809.368 1276.67 805.932 1256.3 802.23 C 1282.56 797.935 1308.46 792.993 1334.93 789.184 C 1347.42 787.387 1360.22 783.095 1373.86 781.374 z"/>
<path transform="translate(0,0)" fill="rgb(235,182,132)" d="M 767.425 428.286 C 783.103 427.067 809.595 427.308 824.622 430.181 C 838.409 432.816 831.519 473.676 828.533 483.663 C 826.876 489.205 819.13 492.308 814.209 494.531 C 812.772 494.837 811.329 495.111 809.879 495.35 C 798.657 497.196 770.968 498.882 761.797 491.416 C 754.508 485.483 751.178 476.385 750.286 467.047 C 749.377 457.527 747.744 440.653 753.88 432.824 C 756.822 429.07 762.945 428.817 767.425 428.286 z"/>
<path transform="translate(0,0)" fill="rgb(245,241,241)" d="M 795.08 433.831 C 799.782 436.417 801.093 437.081 805.061 440.66 C 807.993 443.331 811.21 445.422 810.745 449.799 C 814.548 452.873 816.707 454.346 816.92 459.658 C 817.181 466.129 816.491 474.931 809.475 477.477 C 807.465 477.027 807.281 477.112 805.532 475.91 C 802.986 480.285 802.17 482.087 797.029 482.283 C 793.118 480.539 792.061 478.381 789.659 474.918 L 788.345 476.621 C 781.112 477.468 769.345 464.881 774.422 456.977 C 773.146 445.342 786.595 438.755 795.08 433.831 z"/>
<path transform="translate(0,0)" fill="rgb(7,2,1)" d="M 789.659 474.918 C 787.669 467.354 786.007 452.724 795.924 449.867 C 797.948 449.292 800.122 449.614 801.892 450.752 C 809.145 455.322 808.068 468.96 805.532 475.91 C 802.986 480.285 802.17 482.087 797.029 482.283 C 793.118 480.539 792.061 478.381 789.659 474.918 z"/>
<path transform="translate(0,0)" fill="rgb(7,2,1)" d="M 795.08 433.831 C 799.782 436.417 801.093 437.081 805.061 440.66 L 801.61 442.194 C 786.708 438.421 784.731 450.796 774.422 456.977 C 773.146 445.342 786.595 438.755 795.08 433.831 z"/>
<path transform="translate(0,0)" fill="rgb(13,13,19)" d="M 805.061 440.66 C 807.993 443.331 811.21 445.422 810.745 449.799 L 801.61 442.194 L 805.061 440.66 z"/>
<path transform="translate(0,0)" fill="rgb(206,220,232)" d="M 1241.3 806.048 C 1264.81 809.741 1277.38 813.363 1299.46 818.091 L 1388.2 836.33 C 1388.14 847.099 1388.18 857.965 1387.65 868.713 C 1364.17 864.288 1342.46 860.133 1319.26 854.2 C 1307.51 851.877 1295.65 850.219 1283.89 847.971 C 1269.69 845.256 1255.69 841.321 1241.3 839.685 C 1241.89 830.143 1241.37 815.932 1241.3 806.048 z"/>
<path transform="translate(0,0)" fill="rgb(152,170,192)" d="M 1536.4 807.483 C 1537.42 807.421 1537.07 807.558 1538.3 808.537 C 1539.06 818.663 1538.61 828.538 1538.32 838.672 C 1525.3 840.646 1513.49 844.612 1500.89 847 C 1466.55 853.511 1433.46 861.708 1399.09 868.28 C 1396.37 868.088 1397.48 868.606 1395.59 866.871 C 1394.3 860.482 1394.9 842.737 1394.96 835.501 C 1417.47 833.193 1438.04 825.774 1460.31 822.032 C 1486.16 817.688 1510.23 810.428 1536.4 807.483 z"/>
<path transform="translate(0,0)" fill="rgb(152,170,192)" d="M 1389.29 405.17 C 1408.46 402.961 1410.76 414.113 1408.97 429.973 C 1418.5 429.512 1425.84 429.303 1435.36 429.619 C 1435.15 438.708 1435.04 447.798 1435.04 456.888 L 1399.75 456.457 C 1384.11 456.177 1368.46 456.231 1352.81 456.617 C 1352.92 447.29 1353.09 437.964 1353.33 428.639 L 1378.78 429.315 C 1378.87 424.053 1379.61 419.468 1380.35 414.292 C 1383.86 409.655 1384.65 408.563 1389.29 405.17 z"/>
<path transform="translate(0,0)" fill="rgb(253,253,254)" d="M 909.086 426.643 C 920.358 427.956 925.843 428.082 934.464 435.383 C 938.449 439.065 938.805 445.085 938.728 450.329 C 938.42 471.468 935.87 486.221 917.036 497.116 C 914.43 486.464 912.032 477.781 911.482 466.755 L 910.87 460.412 C 909.941 456.139 909.534 433.449 909.086 426.643 z"/>
<path transform="translate(0,0)" fill="rgb(245,241,241)" d="M 909.086 426.643 C 920.358 427.956 925.843 428.082 934.464 435.383 L 929.223 438.234 C 927.228 441.887 922.332 450.491 921.446 454.07 C 919.258 462.907 914.451 462.634 911.482 466.755 L 910.87 460.412 C 909.941 456.139 909.534 433.449 909.086 426.643 z"/>
<path transform="translate(0,0)" fill="url(#Gradient1)" d="M 909.086 426.643 C 920.358 427.956 925.843 428.082 934.464 435.383 L 929.223 438.234 C 921.775 437.917 918.215 438.379 910.95 439.261 C 910.957 445.56 911.201 454.321 910.87 460.412 C 909.941 456.139 909.534 433.449 909.086 426.643 z"/>
<path transform="translate(0,0)" fill="rgb(245,241,241)" d="M 873.206 441.06 C 877.809 426.189 889.769 428.855 902.629 428.407 C 903.32 436.316 904.163 444.2 904.113 452.136 C 904.342 457.087 904.672 462.296 904.779 467.226 C 905.844 475.141 910.447 486.669 909.815 494.703 L 908.373 495.749 C 905.043 494.921 886.586 482.993 882.507 480.52 C 891.362 471.421 891.13 469.185 889.938 456.546 L 881.895 448.06 L 880.772 445.794 L 876.769 447.527 L 872.397 447.766 L 873.206 441.06 z"/>
<path transform="translate(0,0)" fill="rgb(248,226,194)" d="M 873.206 441.06 C 877.809 426.189 889.769 428.855 902.629 428.407 C 903.32 436.316 904.163 444.2 904.113 452.136 L 901.938 450.741 C 899.076 453.82 901.3 454.622 899.028 458.012 L 897.832 458.124 C 896.265 450.996 895.609 443.84 887.814 441.509 C 884.083 442.026 883.385 443.109 880.772 445.794 L 876.769 447.527 L 872.397 447.766 L 873.206 441.06 z"/>
<path transform="translate(0,0)" fill="rgb(7,2,1)" d="M 881.84 439.078 C 895.107 432.285 899.415 447.856 899.028 458.012 L 897.832 458.124 C 896.265 450.996 895.609 443.84 887.814 441.509 C 884.083 442.026 883.385 443.109 880.772 445.794 L 876.769 447.527 C 878.122 444.122 879.766 442.038 881.84 439.078 z"/>
<path transform="translate(0,0)" fill="rgb(252,219,195)" d="M 873.206 441.06 C 875.633 438.982 876.751 437.276 879.484 436.951 L 881.84 439.078 C 879.766 442.038 878.122 444.122 876.769 447.527 L 872.397 447.766 L 873.206 441.06 z"/>
<path transform="translate(0,0)" fill="rgb(229,215,205)" d="M 899.028 458.012 C 901.3 454.622 899.076 453.82 901.938 450.741 L 904.113 452.136 C 904.342 457.087 904.672 462.296 904.779 467.226 C 901.981 463.786 899.016 462.631 897.832 458.124 L 899.028 458.012 z"/>
<path transform="translate(0,0)" fill="rgb(158,99,68)" d="M 597.627 778.414 C 621.303 773.719 636.326 793.412 657.733 802.032 C 651.263 802.027 635.381 797.764 627.237 796.352 C 621.018 794.624 604.277 792.963 596.656 791.415 C 584.877 789.023 574.538 786.112 562.94 783.337 C 572.785 780.709 587.469 779.39 597.627 778.414 z"/>
<path transform="translate(0,0)" fill="rgb(253,253,254)" d="M 818.075 637.533 C 821.287 641.837 817.921 646.512 818.85 651.829 C 819.363 657.04 824.845 665.65 825.48 670.034 C 827.832 686.262 826.01 687.67 836.083 701.066 C 836.172 703.913 833.26 708.411 831.6 711.493 C 828.07 710.092 825.394 708.399 822.134 706.497 C 810.744 680.248 804.091 664.687 818.075 637.533 z"/>
<path transform="translate(0,0)" fill="rgb(235,182,132)" d="M 881.401 363.404 C 901.08 372.355 916.685 385.449 924.804 406.242 C 926.345 409.107 928.037 416.813 928.932 420.353 C 922.116 419.442 915.292 418.584 908.463 417.779 C 907.273 408.234 904.305 399.059 901.256 389.986 C 895.103 379.851 888.742 372.638 881.401 363.404 z"/>
<path transform="translate(0,0)" fill="rgb(209,140,90)" d="M 901.256 389.986 C 914.041 392.515 917.061 409.404 923.916 407.941 L 924.804 406.242 C 926.345 409.107 928.037 416.813 928.932 420.353 C 922.116 419.442 915.292 418.584 908.463 417.779 C 907.273 408.234 904.305 399.059 901.256 389.986 z"/>
<path transform="translate(0,0)" fill="rgb(209,140,90)" d="M 800.816 707.094 L 801.777 707.902 C 805.546 711.037 814.271 718.628 818.93 718.169 C 823.184 715.337 821.338 715.873 826.017 715.559 C 829.317 716.789 830.776 718.001 832.33 721.322 C 831.905 724.671 832.858 725.818 834.577 728.63 L 835.17 729.586 C 831.824 731.864 801.286 736.529 794.988 737.57 C 798.008 727.818 799.517 717.188 800.816 707.094 z"/>
<path transform="translate(0,0)" fill="rgb(235,182,132)" d="M 818.93 718.169 C 823.184 715.337 821.338 715.873 826.017 715.559 C 829.317 716.789 830.776 718.001 832.33 721.322 C 825.145 722.818 823.353 723.936 818.93 718.169 z"/>
<path transform="translate(0,0)" fill="rgb(176,112,74)" d="M 840.149 704.316 C 846.416 712.159 851.773 718.435 861.77 720.964 L 860.183 725.989 C 857.04 727.016 849.917 728.849 846.914 727.457 C 844.559 719.36 845.535 722.936 839.698 716.701 C 839.84 716.853 840.126 705.254 840.149 704.316 z"/>
<path transform="translate(0,0)" fill="rgb(229,215,205)" d="M 880.772 445.794 L 881.895 448.06 C 874.595 453.578 875.078 463.649 873.622 472.721 C 872.764 463.575 872.46 456.954 872.397 447.766 L 876.769 447.527 L 880.772 445.794 z"/>
<path transform="translate(0,0)" fill="rgb(209,140,90)" d="M 841.187 679.326 C 842.86 680.869 844.516 682.431 846.154 684.011 C 844.716 686.814 843.344 689.65 842.041 692.518 L 840.695 692.827 C 838.22 689.877 837.75 688.739 836.09 685.346 C 837.81 683.357 839.509 681.35 841.187 679.326 z"/>
<path transform="translate(0,0)" fill="rgb(170,139,126)" d="M 861.77 720.964 C 865.816 721.497 868.929 721.411 871.953 723.951 L 871.659 725.442 C 867.23 727.766 864.62 725.763 860.183 725.989 L 861.77 720.964 z"/>
<path transform="translate(0,0)" fill="rgb(248,226,194)" d="M 595.207 433.517 C 596.083 435.801 597.341 438.796 598.032 441.065 L 597.45 441.548 L 585.821 448.601 C 588.639 443.597 592.102 438.392 595.207 433.517 z"/>
<path transform="translate(0,0)" fill="rgb(206,220,232)" d="M 1241.74 337.534 C 1219.37 332.749 1176.6 336.561 1158.94 332.315 L 1158.36 330.467 C 1159.3 321.881 1170.87 307.231 1176.48 300.208 C 1202.19 268.017 1233.46 247.438 1272.93 235.753 C 1279.37 233.844 1296.6 231.578 1300.38 227.955 C 1310.94 217.838 1321.16 200.919 1331.22 189.264 C 1341.7 177.116 1351.59 166.082 1362.78 154.966 C 1417.48 100.649 1482.46 66.9787 1556.77 48.1424 C 1570.49 44.6665 1587.42 39.9996 1601.51 40.0741 C 1609.86 40.1182 1613.63 41.7918 1619.12 47.6383 C 1632.78 95.0309 1595.51 189.693 1571.66 231.191 C 1556.9 256.748 1539.3 280.558 1519.2 302.169 C 1508.29 313.749 1496.85 324.832 1484.94 335.383 C 1473.08 345.742 1450.4 363.429 1441.67 374.392 C 1433.17 385.068 1438.54 404.471 1429.07 420.804 C 1425.97 422.596 1421.37 422.838 1417.67 423.35 C 1416.02 415.327 1413.62 405.78 1405.88 401.924 C 1385.7 391.873 1374.45 404.784 1371.42 422.918 C 1360.65 421.743 1355.8 420.41 1346.32 426.469 C 1345.89 430.649 1345.94 435.074 1343.69 438.395 C 1340.96 439.591 1337.04 439.364 1334.3 438.147 C 1323.88 426.565 1294.42 432.765 1279.74 416.052 C 1266.43 400.893 1245.33 385.977 1234.87 368.054 C 1231.57 362.385 1239.64 343.717 1241.74 337.534 z M 1479.23 241.832 C 1495.7 238.689 1509.21 226.928 1514.6 211.045 C 1519.98 195.161 1516.4 177.61 1505.23 165.099 C 1494.07 152.589 1477.03 147.052 1460.64 150.605 C 1435.74 156.004 1419.8 180.426 1424.89 205.398 C 1429.98 230.37 1454.2 246.609 1479.23 241.832 z"/>
<path transform="translate(0,0)" fill="rgb(206,220,232)" d="M 875.127 355.386 C 875.35 352.344 875.784 350.012 877.879 347.697 C 892.321 331.741 908.085 316.327 923.136 300.984 C 942.773 280.966 961.02 256.822 982.335 238.706 C 993.355 229.34 1006.92 216.633 1017.94 208.263 C 1062.45 174.465 1117.9 148.355 1172.89 137.84 C 1199.16 132.818 1235.13 133.932 1261.92 135.468 C 1274.23 136.175 1328.61 142.899 1336.12 148.972 C 1335.93 153.843 1298.31 196.999 1292.56 203.903 C 1286.55 211.101 1265.72 215.75 1255.62 219.293 C 1247.43 222.165 1239.39 225.465 1231.55 229.18 C 1189.67 249.395 1155.89 283.217 1135.73 325.118 C 1132.72 331.527 1125.85 344.087 1128.33 350.919 C 1138.44 359.608 1207.91 353.19 1212.2 356.997 C 1212.23 365.703 1206.43 373.463 1200.59 379.432 C 1143.38 437.087 1073.13 480.125 995.785 504.911 C 976.787 510.903 951.57 517.575 931.603 516.092 C 926.877 513.056 923.586 508.807 920.003 504.549 C 946.523 491.094 944.319 476.791 946.935 449.745 C 966.218 437.184 950.272 429.215 937.49 424.212 C 934.201 398.23 919.154 373.89 895.084 362.396 C 888.959 359.471 880.857 358.715 875.127 355.386 z"/>
<path transform="translate(0,0)" fill="rgb(206,220,232)" d="M 1224.05 395.871 C 1232.83 396.965 1268.18 433.138 1270.48 442.827 C 1275.77 465.157 1229.08 483.445 1212.76 487.787 C 1205.66 489.284 1178.97 499.498 1174.31 496.477 C 1172.06 487.215 1184.19 448.591 1187.41 438.337 C 1193.42 419.239 1205.56 404.681 1224.05 395.871 z"/>
<path transform="translate(0,0)" fill="rgb(13,13,19)" d="M 213.164 1124.85 C 234.269 1126.75 255.04 1125.05 275.758 1125.81 C 278.507 1128.34 282.963 1132.7 286.513 1133.63 C 282.074 1134.05 278.556 1134.53 274.156 1135.26 C 266.561 1134.31 255.68 1134.77 247.576 1134.76 C 220.637 1134.7 193.207 1135.59 166.287 1134.55 C 163.086 1134.43 159.782 1133.43 157.733 1130.87 L 158.102 1128.9 C 165.343 1122.54 200.403 1125.36 213.164 1124.85 z"/>
<path transform="translate(0,0)" fill="rgb(206,220,232)" d="M 455.539 405.611 L 458.26 406.414 C 464.477 415.779 470.972 420.276 480.016 426.414 C 468.149 433.584 466.028 434.57 458.897 446.301 C 458.068 446.287 455.835 445.762 455.599 445.434 C 450.968 438.999 443.549 432.217 437.977 426.652 C 439.793 423.423 452.275 409.525 455.539 405.611 z"/>
<path transform="translate(0,0)" fill="rgb(7,2,1)" d="M 120.992 1125.37 C 121.932 1125.31 122.872 1125.25 123.813 1125.2 C 128.898 1124.94 140.989 1123.45 140.683 1130.5 C 138.078 1134.25 139.483 1133 134.993 1135.02 C 129.357 1134.44 117.285 1135.98 114.977 1129.47 C 116.854 1126.81 117.845 1126.72 120.992 1125.37 z"/>
</svg>