<svg version="1.1" xmlns="http://www.w3.org/2000/svg" style="display: block;" viewBox="0 0 2048 1344" width="617" height="405" preserveAspectRatio="none">
<defs>
	<linearGradient id="Gradient1" gradientUnits="userSpaceOnUse" x1="1668.31" y1="1064.13" x2="1750.17" y2="1056.97">
		<stop class="stop0" offset="0" stop-opacity="1" stop-color="rgb(65,136,211)"/>
		<stop class="stop1" offset="1" stop-opacity="1" stop-color="rgb(126,186,239)"/>
	</linearGradient>
	<linearGradient id="Gradient2" gradientUnits="userSpaceOnUse" x1="1764.53" y1="898.841" x2="1866.49" y2="912.589">
		<stop class="stop0" offset="0" stop-opacity="1" stop-color="rgb(78,144,213)"/>
		<stop class="stop1" offset="1" stop-opacity="1" stop-color="rgb(135,191,240)"/>
	</linearGradient>
	<linearGradient id="Gradient3" gradientUnits="userSpaceOnUse" x1="295.27" y1="960.759" x2="140.088" y2="896.378">
		<stop class="stop0" offset="0" stop-opacity="1" stop-color="rgb(105,169,226)"/>
		<stop class="stop1" offset="1" stop-opacity="1" stop-color="rgb(160,206,247)"/>
	</linearGradient>
	<linearGradient id="Gradient4" gradientUnits="userSpaceOnUse" x1="1829.8" y1="279.815" x2="1908.25" y2="183.373">
		<stop class="stop0" offset="0" stop-opacity="1" stop-color="rgb(94,160,225)"/>
		<stop class="stop1" offset="1" stop-opacity="1" stop-color="rgb(150,200,240)"/>
	</linearGradient>
	<linearGradient id="Gradient5" gradientUnits="userSpaceOnUse" x1="660.885" y1="990.995" x2="625.508" y2="801.054">
		<stop class="stop0" offset="0" stop-opacity="1" stop-color="rgb(88,165,234)"/>
		<stop class="stop1" offset="1" stop-opacity="1" stop-color="rgb(153,209,246)"/>
	</linearGradient>
	<linearGradient id="Gradient6" gradientUnits="userSpaceOnUse" x1="1481.07" y1="1023.67" x2="1320.91" y2="801.462">
		<stop class="stop0" offset="0" stop-opacity="1" stop-color="rgb(56,141,225)"/>
		<stop class="stop1" offset="1" stop-opacity="1" stop-color="rgb(146,201,243)"/>
	</linearGradient>
	<linearGradient id="Gradient7" gradientUnits="userSpaceOnUse" x1="1483.81" y1="1046.64" x2="1316.85" y2="781.989">
		<stop class="stop0" offset="0" stop-opacity="1" stop-color="rgb(183,220,250)"/>
		<stop class="stop1" offset="1" stop-opacity="1" stop-color="rgb(231,244,251)"/>
	</linearGradient>
	<linearGradient id="Gradient8" gradientUnits="userSpaceOnUse" x1="1248.84" y1="974.462" x2="789.419" y2="384.857">
		<stop class="stop0" offset="0" stop-opacity="1" stop-color="rgb(208,230,251)"/>
		<stop class="stop1" offset="1" stop-opacity="1" stop-color="rgb(243,249,252)"/>
	</linearGradient>
</defs>
<path transform="translate(0,0)" fill="url(#Gradient8)" d="M 501.391 315.603 C 514.703 287.012 556.735 244.758 581.396 222.408 C 642.248 168.099 713.015 126.051 789.81 98.5747 C 953.863 37.5748 1135.58 45.2587 1293.89 119.89 C 1441.48 188.719 1554.88 303.553 1610.79 457.705 C 1621.52 487.298 1636.16 535.21 1636.36 566.351 C 1636.79 568.054 1637.71 571.31 1637.9 572.936 C 1647.53 669.405 1633.25 791.915 1574.87 875.355 C 1571.87 879.634 1565.44 885.18 1561.4 888.849 C 1563.14 918.944 1561.88 943.753 1550.77 971.775 C 1531.94 1019.26 1491.96 1053.76 1443.33 1068.07 C 1437.69 1069.73 1418.55 1073.59 1415.2 1075.79 C 1473.07 1079.7 1531.85 1078.24 1589.73 1083.69 C 1605.84 1085.21 1631.85 1083.6 1646.69 1087.19 L 1647.44 1086.35 C 1649.83 1086.15 1653.33 1085.26 1655.79 1084.74 L 1657.85 1085.37 C 1668.05 1089.16 1681.57 1089.53 1691.39 1090.88 C 1721.92 1095.09 1893.51 1106.41 1907.72 1130.11 C 1907.88 1132.56 1908.23 1134.15 1906.07 1136.26 C 1896.54 1144.36 1880.57 1146.87 1868.41 1149.47 C 1756.98 1173.34 1636.64 1177.99 1523.21 1185.64 C 1483.31 1187.95 1443.37 1189.67 1403.41 1190.8 C 1345.22 1192.74 1287.02 1194.17 1228.8 1195.12 L 1011.74 1195.02 C 840.118 1196.41 668.496 1192.02 497.168 1181.86 C 470.479 1180.35 443.755 1179.69 417.007 1178.03 C 354.386 1174.65 291.954 1168.4 229.907 1159.29 C 205.568 1155.81 156.231 1150.06 133.929 1136.27 C 132.395 1135.32 132.635 1133.37 132.56 1131.7 C 146.182 1100.92 342.365 1101.69 376.144 1084.7 C 366.692 1069.47 363.92 1068.38 347.959 1059.71 C 362.689 1060.4 369.214 1072.99 376.553 1076.4 C 375.873 1054.32 361.589 1067.45 361.458 1050.97 C 364.434 1055.01 366.448 1058.86 371.22 1059.62 L 372.657 1057.84 C 373.579 1053.05 372.61 1048.66 371.914 1043.82 C 375.036 1048.2 374.74 1049.3 378.96 1051.09 C 376.965 1059.6 376.869 1075.93 381.673 1083.55 C 383.536 1086.48 386.433 1088.6 389.787 1089.49 C 404.746 1084.29 431.864 1085.07 448.61 1083.71 C 521.098 1077.83 594.14 1080.72 666.527 1073.94 C 676.358 1073.02 688.652 1072.41 697.859 1069.57 C 689.63 1060.86 681.151 1052.39 672.432 1044.17 C 627.757 1035.87 556.408 1057.25 519.801 1022.81 C 504.949 1011.34 494.21 992.173 490.907 973.911 C 488.535 960.799 488.741 945.495 488.844 932.159 C 489.051 905.359 487.142 876.365 500.208 851.974 C 505.395 842.29 513.476 833.893 521.129 825.99 C 495.608 819.93 461.285 803.401 441.575 784.222 C 424.466 767.574 409.263 722.653 407.825 698.481 C 407.54 693.686 411.934 692.664 414.918 690.163 L 415.793 689.419 C 417.304 687.861 420.15 685.87 421.958 684.511 C 413.542 681.002 412.18 681.064 404.213 675.846 C 398.915 665.424 397.963 654.75 396.795 643.277 C 395.313 628.715 396.198 606.663 397.468 592.696 C 401.316 550.38 423.34 435.875 449.035 405.209 C 442.849 403.697 433.573 404.227 426.874 403.931 C 395.113 402.519 365.529 405.511 333.73 401.895 C 300.284 398.092 296.744 363.575 315.839 341.525 C 327.2 328.406 350.199 328.106 366.659 327.919 C 370.094 318.85 374.219 305.455 379.562 298.064 C 407.677 259.164 466.198 258.796 492.524 300.117 C 494.823 303.725 498.98 313.974 501.391 315.603 z M 1378.16 1074.11 C 1375.45 1072.95 1372.67 1072.31 1369.84 1071.6 C 1331.6 1062.02 1297.66 1040.6 1273.54 1009.31 C 1266.9 1000.69 1257.82 986.33 1255.09 975.795 C 1243.91 974.262 1230.43 974.4 1219.03 974.386 C 1182.37 974.45 1145.99 974.296 1109.3 974.797 C 1097.87 974.953 1089.98 975.81 1080.58 983.679 C 1053.46 1006.38 1027.29 1030.51 1000.78 1053.96 C 996.139 1058.07 988.915 1064.97 985.89 1070.12 C 1022.9 1067.29 1063.93 1068.76 1101.34 1069.17 L 1310.77 1072.05 C 1333.31 1072.36 1355.63 1074.34 1378.16 1074.11 z M 1277.75 428.77 C 1254.76 423.741 1224.4 424.928 1200.42 424.698 L 1101.03 423.38 C 1014.4 421.123 927.735 420.157 841.075 420.481 C 808.581 420.78 775.615 420.108 743.273 422.534 C 686.731 426.775 638.732 467.472 627.887 523.563 C 622.43 551.789 623.389 581.192 622.589 609.85 C 622.502 647.37 622.36 686.908 624.278 724.3 C 626.084 730.41 624.865 736.931 626.495 743.121 C 628.279 735.475 633.2 715.043 633.91 708.063 C 639.541 652.701 639.344 591.93 645.849 537.254 C 651.83 500.182 670.081 467.629 705.413 452.316 C 745.655 434.875 788.353 438.013 831.31 438.157 L 922.354 438.167 C 1006.23 438.374 1090.11 437.972 1173.98 436.96 C 1190.36 436.67 1276.31 437.702 1283.94 432.062 C 1282.72 429.864 1280.71 429.816 1277.75 428.77 z M 625.623 809.61 C 602.616 810.672 573.565 809.115 552.176 814.296 C 547.84 815.346 535.53 821.161 532.713 819.335 C 528.553 821.565 525.09 823.427 521.129 825.99 C 513.476 833.893 505.395 842.29 500.208 851.974 C 487.142 876.365 489.051 905.359 488.844 932.159 C 488.741 945.495 488.535 960.799 490.907 973.911 C 494.21 992.173 504.949 1011.34 519.801 1022.81 C 556.408 1057.25 627.757 1035.87 672.432 1044.17 C 681.151 1052.39 689.63 1060.86 697.859 1069.57 C 713.6 1079.51 727.849 1107.32 744.79 1083.12 L 745.436 1070.53 C 777.219 1073.54 819.73 1069.18 852.134 1069.96 C 860.716 1070.17 881.04 1068.46 888.449 1069.79 C 891.612 1069.58 892.969 1069.49 896.032 1068.73 C 900.776 1064.6 925.782 987.525 928.315 976.704 C 919.043 974.865 912.119 974.864 902.727 974.598 C 874.397 974.813 846.144 974.125 817.846 974.53 L 814.709 973.54 C 813.681 971.283 815.501 959.436 815.508 955.393 C 815.574 917.891 818.644 888.513 804.596 852.885 C 788.286 826.386 766.753 811.553 735.584 807.909 C 696.451 808.551 657.312 808.737 618.175 808.467 L 618.152 808.992 L 617.715 808.635 C 620.487 808.69 623.917 808.184 625.623 809.61 z"/>
<path transform="translate(0,0)" fill="rgb(243,249,252)" d="M 501.391 315.603 C 514.703 287.012 556.735 244.758 581.396 222.408 C 642.248 168.099 713.015 126.051 789.81 98.5747 C 953.863 37.5748 1135.58 45.2587 1293.89 119.89 C 1441.48 188.719 1554.88 303.553 1610.79 457.705 C 1621.52 487.298 1636.16 535.21 1636.36 566.351 C 1636.79 568.054 1637.71 571.31 1637.9 572.936 C 1647.53 669.405 1633.25 791.915 1574.87 875.355 C 1571.87 879.634 1565.44 885.18 1561.4 888.849 C 1559.2 883.527 1558.7 874.666 1555.56 867.026 C 1533.66 798.792 1472.05 751.378 1399.65 752.291 C 1398.17 753.154 1396.9 753.834 1395.51 754.853 C 1389.76 755.253 1383.45 755.514 1377.84 756.61 C 1375.41 753.885 1374.9 748.274 1374.76 744.607 C 1372.31 683.399 1376.56 622.117 1370.95 561.025 C 1371.33 554.829 1369.63 541.306 1368.29 534.944 C 1360.76 499.056 1353.83 466.33 1321.51 444.519 C 1312.41 438.376 1287.68 427.014 1277.75 428.77 C 1254.76 423.741 1224.4 424.928 1200.42 424.698 L 1101.03 423.38 C 1014.4 421.123 927.735 420.157 841.075 420.481 C 808.581 420.78 775.615 420.108 743.273 422.534 C 686.731 426.775 638.732 467.472 627.887 523.563 C 622.43 551.789 623.389 581.192 622.589 609.85 C 622.502 647.37 622.36 686.908 624.278 724.3 C 623.518 733.505 625.379 735.591 623.384 746.502 C 620.347 763.109 621.43 789.38 621.49 806.498 C 590.163 805.866 560.586 803.402 532.713 819.335 C 528.553 821.565 525.09 823.427 521.129 825.99 C 495.608 819.93 461.285 803.401 441.575 784.222 C 424.466 767.574 409.263 722.653 407.825 698.481 C 407.54 693.686 411.934 692.664 414.918 690.163 L 415.793 689.419 C 417.304 687.861 420.15 685.87 421.958 684.511 C 413.542 681.002 412.18 681.064 404.213 675.846 C 398.915 665.424 397.963 654.75 396.795 643.277 C 395.313 628.715 396.198 606.663 397.468 592.696 C 401.316 550.38 423.34 435.875 449.035 405.209 C 442.849 403.697 433.573 404.227 426.874 403.931 C 395.113 402.519 365.529 405.511 333.73 401.895 C 300.284 398.092 296.744 363.575 315.839 341.525 C 327.2 328.406 350.199 328.106 366.659 327.919 C 370.094 318.85 374.219 305.455 379.562 298.064 C 407.677 259.164 466.198 258.796 492.524 300.117 C 494.823 303.725 498.98 313.974 501.391 315.603 z"/>
<path transform="translate(0,0)" fill="rgb(227,239,251)" d="M 366.659 327.919 C 370.094 318.85 374.219 305.455 379.562 298.064 C 407.677 259.164 466.198 258.796 492.524 300.117 C 494.823 303.725 498.98 313.974 501.391 315.603 L 505.687 327.445 C 532.002 327.369 542.617 326.969 557.298 351.542 C 567.417 354.079 581.403 357.018 587.082 366.799 C 590.213 372.191 590.699 382.765 588.708 388.668 C 587.054 393.568 582.559 398.221 577.917 400.518 C 566.42 406.208 471.248 404.202 449.035 405.209 C 442.849 403.697 433.573 404.227 426.874 403.931 C 395.113 402.519 365.529 405.511 333.73 401.895 C 300.284 398.092 296.744 363.575 315.839 341.525 C 327.2 328.406 350.199 328.106 366.659 327.919 z"/>
<path transform="translate(0,0)" fill="rgb(167,203,241)" d="M 1370.95 561.025 C 1376.51 559.738 1382.78 548.541 1385.65 544.035 C 1390.84 535.869 1391.41 525.031 1388.3 516.122 C 1386.03 506.808 1378.31 497.779 1378 493.127 C 1380.63 494.934 1385.85 507.271 1387.28 510.795 C 1399.18 540.137 1397.97 571.405 1397.99 602.481 L 1398.02 701.358 C 1398.03 708.249 1397.06 750.204 1399.65 752.291 C 1398.17 753.154 1396.9 753.834 1395.51 754.853 C 1389.76 755.253 1383.45 755.514 1377.84 756.61 C 1375.41 753.885 1374.9 748.274 1374.76 744.607 C 1372.31 683.399 1376.56 622.117 1370.95 561.025 z"/>
<path transform="translate(0,0)" fill="rgb(97,145,179)" d="M 421.958 684.511 C 424.829 687.65 434.947 684.916 439.016 688.074 L 438.848 689.803 C 434.015 692.591 421.664 690.334 415.793 689.419 C 417.304 687.861 420.15 685.87 421.958 684.511 z"/>
<path transform="translate(0,0)" fill="rgb(97,145,179)" d="M 1636.36 566.351 C 1636.79 568.054 1637.71 571.31 1637.9 572.936 C 1631.38 573.437 1626.7 579.769 1620.73 578.998 L 1620.05 577.581 C 1623.52 571.598 1631.58 571.537 1636.36 566.351 z"/>
<path transform="translate(0,0)" fill="rgb(70,137,191)" d="M 1451.64 388.903 C 1455.36 388.844 1455.79 388.956 1459.18 390.518 C 1463.69 396.608 1458.81 403.043 1454.01 407.626 C 1441.51 419.581 1430.17 438.101 1417.47 448.985 C 1413.86 448.668 1413.2 448.713 1410.45 446.437 C 1409.53 444.643 1408.33 442.956 1408.92 440.913 C 1412.39 428.994 1443.75 395.617 1451.64 388.903 z"/>
<path transform="translate(0,0)" fill="rgb(70,137,191)" d="M 1490.32 460.076 C 1494.65 462.521 1495.78 465.891 1495.15 470.406 C 1490.01 479.31 1454.08 489.117 1442.33 493.065 C 1441.36 492.104 1440.45 491.089 1439.59 490.023 C 1437.13 486.879 1437.36 485.528 1437.77 482.282 C 1442.78 475.263 1480.36 463.126 1490.32 460.076 z"/>
<path transform="translate(0,0)" fill="rgb(70,137,191)" d="M 1375.25 360.949 C 1380.48 361.831 1386.55 363.603 1385.35 370.289 C 1383.63 379.804 1380.73 416.744 1374.9 422.204 C 1372.49 422.115 1364.88 421.699 1364.53 418.63 C 1363.44 408.915 1369.87 366.408 1375.25 360.949 z"/>
<path transform="translate(0,0)" fill="rgb(144,193,236)" d="M 765.822 234.151 C 767.479 234.404 768.858 235.044 770.42 235.655 C 775.048 240.495 773.953 246.328 773.822 253.055 C 780.584 252.768 786.351 251.206 790.251 257.597 L 789.645 259.894 C 784.86 264.499 781.139 263.535 774.14 263.687 C 773.839 270.481 773.986 276.051 770.781 282.042 C 766.874 281.524 768.231 282.167 765.398 279.859 C 763.178 275.925 763.127 268.974 762.752 264.213 C 756.465 264.06 750.139 264.693 746.402 258.926 C 747.124 251.063 756.627 252.785 762.708 252.876 C 763.582 245.798 764.298 241.195 765.822 234.151 z"/>
<path transform="translate(0,0)" fill="rgb(144,193,236)" d="M 1109.3 276.926 C 1126.99 281.292 1128.38 298.953 1111.83 306.142 C 1092.64 301.92 1092.15 286.367 1109.3 276.926 z"/>
<path transform="translate(0,0)" fill="rgb(144,193,236)" d="M 1312.71 213.129 C 1315.06 213.594 1315.02 213.485 1317.03 215.02 C 1318.93 218.445 1318.63 224.555 1318.73 228.68 C 1323.46 229.202 1329.55 228.921 1332.46 232.959 L 1331.57 234.738 C 1327.76 237.126 1323.26 236.905 1318.67 237.185 C 1318.35 242.496 1318.28 247.942 1316.69 252.998 C 1313.98 252.511 1314.04 252.647 1312.04 250.846 C 1310.28 247.121 1310.86 241.986 1310.96 237.682 C 1306.62 237.217 1299.26 237.143 1296.64 233.266 L 1297.57 231.561 C 1301.34 229.417 1306.09 229.605 1310.52 229.338 C 1310.85 222.315 1310.93 219.835 1312.71 213.129 z"/>
<path transform="translate(0,0)" fill="rgb(67,118,164)" d="M 537.144 662.964 L 538.959 663.637 L 538.61 665.198 C 523.201 677.476 474.09 690.789 454.878 690.179 C 453.127 689.675 453.792 689.975 452.399 688.591 C 456.315 684.391 466.895 686.802 470.95 685.219 C 482.339 680.774 495.285 680.578 506.645 676.833 C 516.373 673.626 525.688 666.932 535.917 663.38 L 537.144 662.964 z"/>
<path transform="translate(0,0)" fill="rgb(70,137,191)" d="M 1600.37 582.358 C 1602.86 581.958 1606.51 581.408 1608.41 583.189 C 1606.9 587.192 1598.99 589.27 1595.25 590.451 C 1593.3 591.118 1592.42 591.14 1590.42 591.353 L 1589.16 590.183 C 1590.17 585.016 1596.06 583.678 1600.37 582.358 z"/>
<path transform="translate(0,0)" fill="rgb(97,145,179)" d="M 563.725 642.789 L 565.782 643.674 L 565.791 645.911 C 562.065 651.331 556.141 655.064 550.482 658.206 L 548.812 656.618 C 549.628 651.777 559.368 645.926 563.725 642.789 z"/>
<path transform="translate(0,0)" fill="rgb(70,137,191)" d="M 1521.35 595.059 C 1526.49 594.81 1537.58 593.671 1541.49 596.346 L 1541.76 599.257 C 1534.52 600.033 1524.15 602.963 1521.35 595.059 z"/>
<path transform="translate(0,0)" fill="rgb(60,95,109)" d="M 1574.33 591.391 C 1574.86 591.534 1575.3 592.116 1575.78 592.58 L 1574.59 594.123 C 1569.26 596.019 1562.6 596.541 1556.89 597.241 L 1555.46 596.666 L 1555.54 595.083 C 1559.2 593.505 1569.88 592.111 1574.33 591.391 z"/>
<path transform="translate(0,0)" fill="rgb(67,118,164)" d="M 1490.01 592.205 C 1495.66 592.446 1506.79 591.769 1509.55 596.645 C 1504.38 596.876 1495.21 597.261 1490.7 594.723 L 1490.01 592.205 z"/>
<path transform="translate(0,0)" fill="rgb(227,239,251)" d="M 371.914 1043.82 C 375.036 1048.2 374.74 1049.3 378.96 1051.09 C 376.965 1059.6 376.869 1075.93 381.673 1083.55 C 383.536 1086.48 386.433 1088.6 389.787 1089.49 C 404.746 1084.29 431.864 1085.07 448.61 1083.71 C 521.098 1077.83 594.14 1080.72 666.527 1073.94 C 676.358 1073.02 688.652 1072.41 697.859 1069.57 C 713.6 1079.51 727.849 1107.32 744.79 1083.12 L 745.436 1070.53 C 777.219 1073.54 819.73 1069.18 852.134 1069.96 C 860.716 1070.17 881.04 1068.46 888.449 1069.79 C 891.426 1070.06 893.786 1070.19 896.706 1070.93 L 897.307 1071.94 C 898.503 1079.22 894.154 1094.85 894.85 1105.41 C 888.55 1106.24 866.876 1105.44 859.464 1105.33 C 867.47 1106.27 897.068 1106.08 902.024 1110.19 C 902.256 1110.38 902.507 1110.55 902.742 1110.74 C 902.884 1110.85 903.018 1110.98 903.155 1111.09 C 903.895 1111.54 944.865 1109.3 948.324 1108.53 C 955.755 1106.7 969.766 1109.11 982.235 1104.9 L 980.782 1105.13 L 980.281 1104.16 C 969.804 1103.45 956.767 1104.51 945.689 1104.51 C 958.245 1096.32 971.438 1077.42 985.89 1070.12 C 1022.9 1067.29 1063.93 1068.76 1101.34 1069.17 L 1310.77 1072.05 C 1333.31 1072.36 1355.63 1074.34 1378.16 1074.11 C 1389.54 1075.03 1404.41 1074.15 1415.2 1075.79 C 1473.07 1079.7 1531.85 1078.24 1589.73 1083.69 C 1605.84 1085.21 1631.85 1083.6 1646.69 1087.19 L 1647.44 1086.35 C 1649.83 1086.15 1653.33 1085.26 1655.79 1084.74 L 1657.85 1085.37 C 1668.05 1089.16 1681.57 1089.53 1691.39 1090.88 C 1721.92 1095.09 1893.51 1106.41 1907.72 1130.11 C 1907.88 1132.56 1908.23 1134.15 1906.07 1136.26 C 1896.54 1144.36 1880.57 1146.87 1868.41 1149.47 C 1756.98 1173.34 1636.64 1177.99 1523.21 1185.64 C 1483.31 1187.95 1443.37 1189.67 1403.41 1190.8 C 1345.22 1192.74 1287.02 1194.17 1228.8 1195.12 L 1011.74 1195.02 C 840.118 1196.41 668.496 1192.02 497.168 1181.86 C 470.479 1180.35 443.755 1179.69 417.007 1178.03 C 354.386 1174.65 291.954 1168.4 229.907 1159.29 C 205.568 1155.81 156.231 1150.06 133.929 1136.27 C 132.395 1135.32 132.635 1133.37 132.56 1131.7 C 146.182 1100.92 342.365 1101.69 376.144 1084.7 C 366.692 1069.47 363.92 1068.38 347.959 1059.71 C 362.689 1060.4 369.214 1072.99 376.553 1076.4 C 375.873 1054.32 361.589 1067.45 361.458 1050.97 C 364.434 1055.01 366.448 1058.86 371.22 1059.62 L 372.657 1057.84 C 373.579 1053.05 372.61 1048.66 371.914 1043.82 z"/>
<path transform="translate(0,0)" fill="rgb(144,193,236)" d="M 1639.25 1115.22 L 1641.04 1116.93 C 1643.63 1116.73 1642.52 1117.22 1644.43 1115.29 L 1645.27 1117.25 C 1649.99 1118.72 1659.83 1117.67 1665.36 1117.9 C 1685.82 1118.75 1729.07 1116.46 1746.68 1121.5 C 1734.94 1122.42 1722.35 1122.55 1710.52 1123.88 C 1703.93 1124.62 1682 1128.47 1677.36 1128.45 C 1660.34 1128.36 1558.3 1130.8 1546.22 1125.59 L 1545.7 1124.11 C 1552.42 1119.44 1623.42 1119.21 1638.13 1117.02 L 1639.25 1115.22 z"/>
<path transform="translate(0,0)" fill="rgb(144,193,236)" d="M 397.427 1115.06 C 400.152 1115.9 401.027 1116.42 403.746 1115.99 C 409.796 1116.13 436.249 1117.38 438.382 1122.75 C 438.103 1122.95 437.832 1123.17 437.544 1123.35 C 430.028 1128.21 345.668 1126.36 331.547 1125 C 320.053 1123.89 308.968 1120.16 297.473 1119.4 C 285.485 1118.6 258.091 1120.09 248.341 1117.42 C 254.883 1113.62 356.12 1117.05 370.007 1115.15 C 375.664 1114.37 390.473 1116.98 397.427 1115.06 z"/>
<path transform="translate(0,0)" fill="rgb(144,193,236)" d="M 948.324 1108.53 L 953.071 1111.51 L 953.276 1113.04 L 950.685 1113.86 C 952.558 1116.07 997.911 1119.72 1005.19 1120.32 L 1007.23 1120.48 C 983.008 1120.63 959.992 1117.12 935.37 1116.64 C 918.735 1116.3 902.096 1116.21 885.458 1116.36 C 871.638 1116.54 856.65 1117.29 842.966 1116.26 C 858.554 1115.75 874.156 1115.23 889.745 1114.71 C 894.134 1114.56 895.029 1114.25 898.506 1111.58 L 903.155 1111.09 C 903.895 1111.54 944.865 1109.3 948.324 1108.53 z"/>
<path transform="translate(0,0)" fill="rgb(97,145,179)" d="M 371.914 1043.82 C 375.036 1048.2 374.74 1049.3 378.96 1051.09 C 376.965 1059.6 376.869 1075.93 381.673 1083.55 C 383.536 1086.48 386.433 1088.6 389.787 1089.49 L 388.533 1090.59 C 390.142 1097.5 400.755 1108.07 403.746 1115.99 C 401.027 1116.42 400.152 1115.9 397.427 1115.06 C 391.373 1108 379.578 1087.41 376.144 1084.7 C 366.692 1069.47 363.92 1068.38 347.959 1059.71 C 362.689 1060.4 369.214 1072.99 376.553 1076.4 C 375.873 1054.32 361.589 1067.45 361.458 1050.97 C 364.434 1055.01 366.448 1058.86 371.22 1059.62 L 372.657 1057.84 C 373.579 1053.05 372.61 1048.66 371.914 1043.82 z"/>
<path transform="translate(0,0)" fill="rgb(97,145,179)" d="M 1647.44 1086.35 C 1649.83 1086.15 1653.33 1085.26 1655.79 1084.74 C 1651.08 1094.13 1647.38 1105.18 1644.43 1115.29 C 1642.52 1117.22 1643.63 1116.73 1641.04 1116.93 L 1639.25 1115.22 C 1641.64 1106.79 1645.16 1095.54 1646.69 1087.19 L 1647.44 1086.35 z"/>
<path transform="translate(0,0)" fill="rgb(144,193,236)" d="M 897.307 1071.94 C 898.503 1079.22 894.154 1094.85 894.85 1105.41 C 888.55 1106.24 866.876 1105.44 859.464 1105.33 C 857.348 1105.18 854.143 1105.22 852.424 1104.21 C 900.587 1101.65 883.698 1113.7 897.307 1071.94 z"/>
<path transform="translate(0,0)" fill="rgb(144,193,236)" d="M 442.75 1145.51 C 450.714 1145.26 482.361 1143.65 487.032 1149.11 L 486.416 1150.74 C 477.272 1156.26 426.657 1153.34 413.781 1152.8 C 403.599 1151.7 372.917 1153.03 367.258 1149.82 C 370.089 1147.14 434.855 1145.59 442.75 1145.51 z"/>
<path transform="translate(0,0)" fill="rgb(144,193,236)" d="M 1609.23 1149.51 C 1623.15 1149.08 1644.99 1149.56 1658.2 1152.5 C 1644.14 1154.59 1623.9 1154.06 1609.25 1154.1 C 1603.06 1154.14 1568.58 1154.94 1565.63 1152.88 L 1565.66 1150.9 C 1569.61 1148.46 1602.2 1149.55 1609.23 1149.51 z"/>
<path transform="translate(0,0)" fill="url(#Gradient7)" d="M 1399.65 752.291 C 1472.05 751.378 1533.66 798.792 1555.56 867.026 C 1558.7 874.666 1559.2 883.527 1561.4 888.849 C 1563.14 918.944 1561.88 943.753 1550.77 971.775 C 1531.94 1019.26 1491.96 1053.76 1443.33 1068.07 C 1437.69 1069.73 1418.55 1073.59 1415.2 1075.79 C 1404.41 1074.15 1389.54 1075.03 1378.16 1074.11 C 1375.45 1072.95 1372.67 1072.31 1369.84 1071.6 C 1331.6 1062.02 1297.66 1040.6 1273.54 1009.31 C 1266.9 1000.69 1257.82 986.33 1255.09 975.795 C 1253.63 967.617 1250.5 957.492 1248.71 948.882 C 1244.37 927.932 1244.39 910.892 1246.31 889.869 C 1249.94 878.866 1249.74 869.701 1255.32 856.238 C 1271.44 816.346 1302.89 784.158 1342.55 767.383 C 1353.44 762.777 1366.86 761.341 1377.84 756.61 C 1383.45 755.514 1389.76 755.253 1395.51 754.853 C 1396.9 753.834 1398.17 753.154 1399.65 752.291 z"/>
<path transform="translate(0,0)" fill="rgb(144,193,236)" d="M 1399.65 752.291 C 1472.05 751.378 1533.66 798.792 1555.56 867.026 C 1554.07 867.556 1554.29 867.385 1552.65 867.44 C 1521.06 792.923 1478.05 757.503 1395.51 754.853 C 1396.9 753.834 1398.17 753.154 1399.65 752.291 z"/>
<path transform="translate(0,0)" fill="url(#Gradient6)" d="M 1395.4 774.349 C 1472.01 771.001 1536.83 830.4 1540.17 907.015 C 1543.51 983.63 1484.1 1048.44 1407.49 1051.77 C 1330.88 1055.1 1266.09 995.704 1262.75 919.103 C 1259.41 842.502 1318.8 777.696 1395.4 774.349 z"/>
<path transform="translate(0,0)" fill="rgb(227,239,251)" d="M 1373.13 874.311 C 1380.63 862.65 1387.4 838.938 1395.57 830.378 C 1408.84 816.468 1424.7 866.655 1430.28 874.85 L 1430.91 875.752 C 1444.09 878.052 1470.14 876.725 1480.75 883.832 C 1494.42 892.992 1457.21 918.053 1453 925.734 C 1448.71 933.556 1449.84 934.245 1450.9 942.735 C 1468.31 1014.36 1438.01 980.041 1403.46 964.841 C 1389.31 969.891 1354.51 996.701 1346.96 980.9 C 1346.41 961.39 1352.9 950.033 1354.4 931.862 C 1338.86 906.539 1284.56 880.956 1352.56 877.469 C 1358.22 877.179 1366.77 876.149 1372.14 874.605 L 1373.13 874.311 z"/>
<path transform="translate(0,0)" fill="rgb(167,203,241)" d="M 1450.9 942.735 C 1468.31 1014.36 1438.01 980.041 1403.46 964.841 C 1389.31 969.891 1354.51 996.701 1346.96 980.9 C 1354 978.502 1361.48 978.348 1368.07 975.051 C 1381.01 968.577 1386.5 962.664 1400.85 958.697 C 1417.04 962.205 1423.23 967.686 1437.63 974.929 C 1441.59 976.924 1448.4 979.26 1452.8 977.627 C 1454.79 973.295 1449.96 950.858 1450.9 942.735 z"/>
<path transform="translate(0,0)" fill="url(#Gradient5)" d="M 625.623 809.61 C 623.917 808.184 620.487 808.69 617.715 808.635 L 618.152 808.992 L 618.175 808.467 C 657.312 808.737 696.451 808.551 735.584 807.909 C 766.753 811.553 788.286 826.386 804.596 852.885 C 818.644 888.513 815.574 917.891 815.508 955.393 C 815.501 959.436 813.681 971.283 814.709 973.54 L 817.846 974.53 C 815.343 974.891 813.918 974.512 812.861 976.615 C 809.188 983.924 807.134 993.086 803.056 1000.19 C 787.373 1027.52 767.709 1031.83 743.563 1042.98 C 743.453 1051.02 743.48 1062.78 745.436 1070.53 L 744.79 1083.12 C 727.849 1107.32 713.6 1079.51 697.859 1069.57 C 689.63 1060.86 681.151 1052.39 672.432 1044.17 C 627.757 1035.87 556.408 1057.25 519.801 1022.81 C 504.949 1011.34 494.21 992.173 490.907 973.911 C 488.535 960.799 488.741 945.495 488.844 932.159 C 489.051 905.359 487.142 876.365 500.208 851.974 C 505.395 842.29 513.476 833.893 521.129 825.99 C 525.09 823.427 528.553 821.565 532.713 819.335 C 535.53 821.161 547.84 815.346 552.176 814.296 C 573.565 809.115 602.616 810.672 625.623 809.61 z M 708.402 945.558 C 713.329 949.943 719.993 951.829 726.487 950.678 C 736.325 948.933 743.673 940.653 744.235 930.678 C 744.598 924.245 742.063 917.988 737.325 913.622 C 732.588 909.255 726.145 907.239 719.763 908.124 C 711.441 909.279 704.55 915.167 702.109 923.207 C 699.669 931.247 702.126 939.972 708.402 945.558 z M 659.42 949.475 C 666.754 946.861 672.078 940.454 673.304 932.765 C 674.531 925.077 671.465 917.331 665.309 912.565 C 659.153 907.798 650.887 906.77 643.75 909.883 C 633.228 914.473 628.235 926.575 632.46 937.249 C 636.684 947.923 648.607 953.33 659.42 949.475 z M 590.759 949.081 C 601.527 944.547 606.617 932.172 602.155 921.374 C 597.694 910.575 585.353 905.402 574.525 909.791 C 563.593 914.222 558.36 926.706 562.864 937.608 C 567.368 948.51 579.888 953.659 590.759 949.081 z"/>
<path transform="translate(0,0)" fill="rgb(92,164,230)" d="M 625.623 809.61 C 623.917 808.184 620.487 808.69 617.715 808.635 L 618.152 808.992 L 618.175 808.467 C 657.312 808.737 696.451 808.551 735.584 807.909 C 766.753 811.553 788.286 826.386 804.596 852.885 C 818.644 888.513 815.574 917.891 815.508 955.393 C 815.501 959.436 813.681 971.283 814.709 973.54 L 817.846 974.53 C 815.343 974.891 813.918 974.512 812.861 976.615 C 809.188 983.924 807.134 993.086 803.056 1000.19 C 787.373 1027.52 767.709 1031.83 743.563 1042.98 C 743.453 1051.02 743.48 1062.78 745.436 1070.53 L 744.79 1083.12 C 727.849 1107.32 713.6 1079.51 697.859 1069.57 C 689.63 1060.86 681.151 1052.39 672.432 1044.17 C 627.757 1035.87 556.408 1057.25 519.801 1022.81 C 519.712 1021.98 519.148 1020.29 518.89 1019.41 C 519.114 1018.4 519.816 1015.72 521.253 1015.69 C 552.921 1014.99 582.706 997.368 613.813 993.332 C 619.579 992.584 625.738 991.564 631.408 990.455 L 751.231 968.146 C 759.769 966.595 788.065 966.074 793.405 962.807 C 809.846 948.835 804.819 912.333 808.101 892.686 C 811.076 874.873 795.844 844.637 784.192 833.17 C 755.014 804.455 718.991 808.967 682.338 809.416 L 625.623 809.61 z"/>
<path transform="translate(0,0)" fill="rgb(167,203,241)" d="M 1064.77 970.039 C 1072.52 967.253 1081.02 964.883 1089.2 964.025 C 1084.61 965.635 1074.32 968.835 1071.16 971.984 C 1076.93 976.068 1101.34 972.656 1109.46 972.569 L 1202.4 972.468 C 1218.3 972.459 1237.05 973.529 1252.51 972.82 C 1252.66 972.326 1247.23 949.494 1246.81 946.612 C 1244.35 929.885 1241.98 906.517 1245.13 890.013 L 1246.31 889.869 C 1244.39 910.892 1244.37 927.932 1248.71 948.882 C 1250.5 957.492 1253.63 967.617 1255.09 975.795 C 1243.91 974.262 1230.43 974.4 1219.03 974.386 C 1182.37 974.45 1145.99 974.296 1109.3 974.797 C 1097.87 974.953 1089.98 975.81 1080.58 983.679 C 1053.46 1006.38 1027.29 1030.51 1000.78 1053.96 C 996.139 1058.07 988.915 1064.97 985.89 1070.12 C 971.438 1077.42 958.245 1096.32 945.689 1104.51 C 956.767 1104.51 969.804 1103.45 980.281 1104.16 L 980.782 1105.13 L 982.235 1104.9 C 969.766 1109.11 955.755 1106.7 948.324 1108.53 C 944.865 1109.3 903.895 1111.54 903.155 1111.09 C 903.018 1110.98 902.884 1110.85 902.742 1110.74 C 902.507 1110.55 902.256 1110.38 902.024 1110.19 C 897.068 1106.08 867.47 1106.27 859.464 1105.33 C 866.876 1105.44 888.55 1106.24 894.85 1105.41 C 912.492 1108.97 923.85 1091.91 936.009 1081.98 C 960.275 1062.15 983.221 1040.68 1006.83 1020.14 C 1017.78 1010.61 1028.8 1001.16 1039.89 991.781 C 1045.88 986.797 1060.7 975.572 1064.77 970.039 z"/>
<path transform="translate(0,0)" fill="rgb(144,193,236)" d="M 624.278 724.3 C 626.084 730.41 624.865 736.931 626.495 743.121 C 626.182 750.043 624.337 748.315 623.857 753.014 C 622.075 770.486 625.602 789.295 625.911 806.642 C 643.789 806.537 723.938 804.384 735.584 807.909 C 696.451 808.551 657.312 808.737 618.175 808.467 L 618.152 808.992 L 617.715 808.635 C 620.487 808.69 623.917 808.184 625.623 809.61 C 602.616 810.672 573.565 809.115 552.176 814.296 C 547.84 815.346 535.53 821.161 532.713 819.335 C 560.586 803.402 590.163 805.866 621.49 806.498 C 621.43 789.38 620.347 763.109 623.384 746.502 C 625.379 735.591 623.518 733.505 624.278 724.3 z"/>
<path transform="translate(0,0)" fill="rgb(167,203,241)" d="M 804.596 852.885 C 826.45 880.382 815.591 931.033 818.719 963.602 C 818.665 963.035 821.716 968.677 822.099 969.687 L 819.96 972.437 C 830.638 974.938 898.921 971.321 902.727 974.598 C 874.397 974.813 846.144 974.125 817.846 974.53 L 814.709 973.54 C 813.681 971.283 815.501 959.436 815.508 955.393 C 815.574 917.891 818.644 888.513 804.596 852.885 z"/>
<path transform="translate(0,0)" fill="rgb(144,193,236)" d="M 731.245 714.387 C 754.489 713.062 783.523 713.93 807.088 713.995 L 926.254 713.934 L 1141.59 713.687 C 1161.14 713.669 1194.49 713.061 1215.11 714.322 C 1220.84 714.673 1226.46 728.534 1214.85 732.803 C 1170.45 734.037 733.617 733.856 728.525 731.672 C 725.783 730.496 723.712 728.373 722.879 725.472 C 722.218 723.171 722.706 720.056 723.984 718.035 C 725.74 715.258 728.333 715.134 731.245 714.387 z"/>
<path transform="translate(0,0)" fill="rgb(144,193,236)" d="M 736.723 779.409 C 753.159 778.634 773.852 779.181 790.643 779.193 L 889.888 779.132 L 1042.42 779.049 C 1070.84 779.021 1099.15 778.901 1127.67 778.991 C 1137.9 779.023 1147.61 781.427 1141.19 794.79 C 1140.05 797.168 1135.38 797.533 1132.85 798.084 L 875.06 797.995 C 830.327 797.946 785.551 798.277 740.833 797.581 C 733.846 797.472 723.115 797.453 721.716 789.271 C 724.466 780.138 728.643 779.902 736.723 779.409 z"/>
<path transform="translate(0,0)" fill="rgb(227,239,251)" d="M 984.898 566.943 C 988.21 559.385 992.803 546.061 999.613 542.095 C 1009.04 541.379 1013.71 559.92 1016.5 567.427 C 1024.41 568.586 1049.59 569.899 1050.22 579.391 C 1043.62 588.266 1034.81 595.48 1028.14 603.755 C 1030.9 610.416 1037.04 628.431 1032.01 634.655 C 1023.68 637.449 1010.87 627.673 1001.25 623.384 C 992.891 626.453 985.909 632.414 976.05 635.983 C 972.218 635.798 971.189 634.905 968.906 632.306 C 966.514 624.294 970.844 611.22 972.971 602.575 C 967.785 595.359 951.591 583.584 953.907 575.23 C 958.849 571.247 977.001 569.319 984.898 566.943 z"/>
<path transform="translate(0,0)" fill="rgb(70,137,191)" d="M 984.898 566.943 C 988.21 559.385 992.803 546.061 999.613 542.095 C 1009.04 541.379 1013.71 559.92 1016.5 567.427 C 1024.41 568.586 1049.59 569.899 1050.22 579.391 C 1043.62 588.266 1034.81 595.48 1028.14 603.755 C 1030.9 610.416 1037.04 628.431 1032.01 634.655 C 1030.32 631.641 1029.93 631.537 1026.93 630.799 C 1028.8 627.394 1023.77 608.482 1024 599.072 C 1031.41 592.143 1038.25 585.106 1045.89 578.262 C 1042.92 575.128 1021.61 573.774 1014.65 572.586 C 1009.89 562.915 1005.4 552.206 1000.97 542.286 C 996.58 551.04 991.773 563.392 988.129 572.567 C 978.549 574.485 967.182 575.273 956.929 577.099 L 953.907 575.23 C 958.849 571.247 977.001 569.319 984.898 566.943 z"/>
<path transform="translate(0,0)" fill="rgb(97,145,179)" d="M 953.907 575.23 L 956.929 577.099 C 963.877 585.775 972.599 593.191 979.302 601.977 C 977.983 608.236 973.169 626.128 975.138 630.504 L 973.508 633.045 C 974.546 634.473 974.726 634.838 976.05 635.983 C 972.218 635.798 971.189 634.905 968.906 632.306 C 966.514 624.294 970.844 611.22 972.971 602.575 C 967.785 595.359 951.591 583.584 953.907 575.23 z"/>
<path transform="translate(0,0)" fill="rgb(70,137,191)" d="M 1001.68 617.225 C 1009.41 621.622 1018.93 627.592 1026.93 630.799 C 1029.93 631.537 1030.32 631.641 1032.01 634.655 C 1023.68 637.449 1010.87 627.673 1001.25 623.384 C 992.891 626.453 985.909 632.414 976.05 635.983 C 974.726 634.838 974.546 634.473 973.508 633.045 L 975.138 630.504 C 986.227 626.656 992.497 620.785 1001.68 617.225 z"/>
<path transform="translate(0,0)" fill="rgb(70,137,191)" d="M 1121.4 540.882 C 1123.53 540.781 1125.39 541.024 1127.51 541.223 C 1133.21 544.464 1138.59 559.867 1142.01 567.027 C 1150.7 568.645 1169.64 569.649 1172.36 578.199 C 1171.23 585.308 1158.59 596.707 1152.92 602.598 C 1155.1 610.857 1161.39 630.422 1152.53 634.809 C 1144.14 635.154 1135.92 628.743 1128.52 624.505 C 1118.35 622.171 1108.82 633.625 1098.39 636.519 C 1088.69 634.21 1096.05 608.516 1097.4 601.506 C 1091.53 595.558 1077.2 584.283 1079.28 575.865 C 1083.49 570.95 1101.69 568.337 1109.47 566.481 C 1113.28 557.426 1116.47 549.397 1121.4 540.882 z"/>
<path transform="translate(0,0)" fill="rgb(227,239,251)" d="M 1124.06 545.401 C 1129.7 548.903 1134.15 564.811 1138.1 572.45 C 1149.21 575.343 1158.38 575.043 1169.77 576.918 C 1163.32 584.812 1154.81 591.788 1147.68 600.488 C 1148.14 609.583 1150.33 621.424 1151.78 630.647 C 1141.83 627.234 1135.1 621.93 1125.5 617.785 C 1118.26 619.616 1104.3 629.692 1099.57 628.868 C 1097.14 624.639 1102.07 607.56 1103.38 601.437 C 1096.43 593.28 1088.34 585.017 1080.93 577.186 C 1090.72 575.532 1101.19 574.243 1111.05 572.942 C 1116.03 564.128 1119.41 554.564 1124.06 545.401 z"/>
<path transform="translate(0,0)" fill="rgb(227,239,251)" d="M 1245.78 540.69 C 1249.77 541.275 1251.46 540.932 1254.02 544.834 C 1258.05 550.97 1261.9 560.966 1264.37 567.931 C 1272.02 569.051 1291.19 570.564 1295.93 575.802 C 1296.63 579.054 1296.32 580.652 1293.83 583.225 C 1289.02 589.422 1280.56 596.887 1274.63 602.443 C 1276.88 609.178 1281.35 624.468 1279.51 630.854 C 1276.55 641.116 1253.07 625.868 1247.52 623.556 C 1239.04 626.548 1225.4 637.571 1217.45 633.576 C 1213.73 627.442 1218.21 609.132 1219.52 601.427 C 1213.44 595.648 1199.09 584.389 1201.52 575.898 C 1205.84 571.276 1223.82 568.662 1231.9 566.555 C 1235.51 559.423 1240.2 545.082 1245.78 540.69 z"/>
<path transform="translate(0,0)" fill="rgb(70,137,191)" d="M 1245.78 540.69 L 1247.45 544.772 C 1241.72 554.656 1239.9 562.925 1235.28 572.585 C 1225.25 573.776 1212.21 574.967 1202.67 577.309 C 1210.38 584.168 1218.1 592.773 1225.18 600.398 C 1224.54 611.627 1220.9 620.56 1220.12 631.282 C 1226.8 627.959 1242 619.848 1248.42 617.451 C 1257.1 622.189 1265.2 627.41 1274.44 630.729 C 1273.27 621.719 1270.7 608.419 1270.39 600.093 C 1277.49 592.063 1282.95 586.385 1290.7 578.977 C 1291.68 580.237 1293.07 581.886 1293.83 583.225 C 1289.02 589.422 1280.56 596.887 1274.63 602.443 C 1276.88 609.178 1281.35 624.468 1279.51 630.854 C 1276.55 641.116 1253.07 625.868 1247.52 623.556 C 1239.04 626.548 1225.4 637.571 1217.45 633.576 C 1213.73 627.442 1218.21 609.132 1219.52 601.427 C 1213.44 595.648 1199.09 584.389 1201.52 575.898 C 1205.84 571.276 1223.82 568.662 1231.9 566.555 C 1235.51 559.423 1240.2 545.082 1245.78 540.69 z"/>
<path transform="translate(0,0)" fill="rgb(70,137,191)" d="M 1245.78 540.69 C 1249.77 541.275 1251.46 540.932 1254.02 544.834 C 1258.05 550.97 1261.9 560.966 1264.37 567.931 C 1272.02 569.051 1291.19 570.564 1295.93 575.802 C 1296.63 579.054 1296.32 580.652 1293.83 583.225 C 1293.07 581.886 1291.68 580.237 1290.7 578.977 L 1290.61 577.368 C 1287.62 575.73 1266.91 573.97 1260.47 572.452 C 1255.73 563.818 1253.94 553.379 1247.45 544.772 L 1245.78 540.69 z"/>
<path transform="translate(0,0)" fill="rgb(97,145,179)" d="M 750.968 542.028 C 764.136 537.752 768.062 557.393 771.852 567.249 C 779.429 568.602 798.719 570.648 803.321 575.805 C 803.857 578.562 803.786 579.926 801.916 582.382 C 797.316 588.354 788.642 595.164 785.01 600.278 C 781.184 605.664 789.063 624.101 787.537 630.899 C 786.837 634.016 786.09 634.015 783.733 635.312 C 773.79 635.601 766.843 627.419 756.273 624.075 L 755.218 623.753 C 747.036 626.307 731.023 638.555 724.497 632.67 C 721.983 625.972 726.246 609.878 727.82 602.104 C 721.891 595.635 708.143 585.382 709.25 576.351 C 713.802 570.557 731.473 568.866 739.182 567.512 C 743.045 558.987 746.974 550.492 750.968 542.028 z"/>
<path transform="translate(0,0)" fill="rgb(243,249,252)" d="M 755.265 544.843 C 759.342 550.88 766.726 565.739 768.92 572.722 C 775.077 573.899 796.698 575.341 799.056 577.637 C 792.97 585.237 784.832 593.397 778.018 600.554 C 779.125 609.171 782.138 622.102 783.809 631.106 C 775.096 628.079 764.496 621.526 755.308 617.302 C 745.997 621.572 738.991 626.673 728.399 631.048 C 729.531 620.532 731.491 610.711 732.413 599.999 C 726.99 593.022 717.358 583.799 710.901 577.267 C 720.07 575.238 732.939 573.858 742.888 572.077 C 747.018 561.927 750.06 554.406 755.265 544.843 z"/>
<path transform="translate(0,0)" fill="rgb(243,249,252)" d="M 861.013 567.663 C 864.578 559.801 869.347 546.565 876.123 542.113 C 885.716 540.468 891.226 560.001 892.887 567.585 C 900.78 568.55 919.282 570.275 924.705 575.221 C 927.5 583.26 911.255 595.865 905.261 601.628 C 906.317 609.74 910.039 626.369 907.555 632.979 C 900.69 638.775 885.306 626.264 877.574 623.363 C 868.709 626.849 857.242 635.301 849.979 635.088 C 848.363 634.368 848.049 634.432 846.838 633.296 C 843.213 627.236 848.99 610.158 849.273 600.867 C 843.714 595.422 830.505 584.761 830.151 577.822 C 834.38 569.714 852.243 569.898 861.013 567.663 z"/>
<path transform="translate(0,0)" fill="rgb(70,137,191)" d="M 861.013 567.663 C 864.578 559.801 869.347 546.565 876.123 542.113 C 885.716 540.468 891.226 560.001 892.887 567.585 C 900.78 568.55 919.282 570.275 924.705 575.221 C 927.5 583.26 911.255 595.865 905.261 601.628 C 906.317 609.74 910.039 626.369 907.555 632.979 C 900.69 638.775 885.306 626.264 877.574 623.363 C 868.709 626.849 857.242 635.301 849.979 635.088 C 848.363 634.368 848.049 634.432 846.838 633.296 C 849.764 632.462 848.806 633.321 850.121 631.032 C 859.423 628.039 867.895 621.668 877.629 617.507 C 883.895 620.01 896.602 627.827 904.737 631.63 C 904.131 623.388 901.016 610.039 899.808 600.447 C 907.392 593.219 915.489 584.071 922.552 576.312 C 911.862 575.26 901.191 574.326 890.587 572.591 C 888.369 567.043 882.741 549.961 878.664 547.14 C 874.195 548.657 867.11 566.139 864.002 572.071 C 854.023 574.521 844.316 574.33 833.37 577.327 C 839.423 584.578 847.486 592.055 854.109 599.611 C 852.41 600.219 850.901 601.037 849.273 600.867 C 843.714 595.422 830.505 584.761 830.151 577.822 C 834.38 569.714 852.243 569.898 861.013 567.663 z"/>
<path transform="translate(0,0)" fill="rgb(97,145,179)" d="M 849.273 600.867 C 850.901 601.037 852.41 600.219 854.109 599.611 C 854.64 607.211 851.079 622.008 850.121 631.032 C 848.806 633.321 849.764 632.462 846.838 633.296 C 843.213 627.236 848.99 610.158 849.273 600.867 z"/>
<path transform="translate(0,0)" fill="rgb(227,239,251)" d="M 1785.79 637.342 C 1824.02 637.016 1839.76 657.806 1852.87 690.32 C 1875.54 690.429 1902 694.398 1904.11 722.298 C 1906.57 754.846 1866.46 750.423 1844.91 750.325 C 1827.19 750.118 1809.47 750.145 1791.75 750.404 C 1775.37 750.783 1758.44 750.463 1741.99 750.429 C 1720.64 750.385 1697.72 754.492 1678.92 742.908 C 1663.5 701.788 1691.74 690.727 1727.15 690.349 C 1735.59 659.346 1753.47 642.017 1785.79 637.342 z"/>
<path transform="translate(0,0)" fill="url(#Gradient4)" d="M 1782.14 243.231 C 1793.57 235.59 1909.81 199.134 1929.24 193.774 C 1923.98 219.507 1906.93 247.735 1897.87 272.901 C 1894.57 282.076 1885.2 306.477 1879.85 312.925 C 1871.81 313.744 1857.09 297.268 1850.92 291.319 C 1845.77 296.223 1834.02 309.665 1828.66 310.032 C 1825.54 307.751 1826.07 305.845 1825.93 301.921 C 1824.7 293.044 1823.06 270.54 1816.45 265.343 C 1804.95 258.959 1791.31 252.331 1782.14 243.231 z"/>
<path transform="translate(0,0)" fill="rgb(70,137,191)" d="M 1816.45 265.343 L 1817.56 264.936 C 1837.07 257.669 1848.95 245.944 1865.46 236.004 C 1871.36 232.457 1908.08 209.543 1910.78 208.85 L 1911.29 209.559 C 1899.58 218.189 1883.38 234.275 1871.9 244.193 C 1862.05 252.696 1846.54 265.601 1838.08 275.063 C 1840.48 277.815 1843.45 280.734 1844.78 284.021 C 1846.84 286.442 1848.89 288.875 1850.92 291.319 C 1845.77 296.223 1834.02 309.665 1828.66 310.032 C 1825.54 307.751 1826.07 305.845 1825.93 301.921 C 1824.7 293.044 1823.06 270.54 1816.45 265.343 z"/>
<path transform="translate(0,0)" fill="rgb(67,118,164)" d="M 1834.59 273.615 C 1838.48 278.223 1840.16 280.234 1844.78 284.021 C 1846.84 286.442 1848.89 288.875 1850.92 291.319 C 1845.77 296.223 1834.02 309.665 1828.66 310.032 C 1825.54 307.751 1826.07 305.845 1825.93 301.921 L 1829.78 301.225 C 1833.9 294.93 1834.03 281.319 1834.59 273.615 z"/>
<path transform="translate(0,0)" fill="rgb(144,193,236)" d="M 240.601 851.028 C 206.47 829.412 179.751 787.185 176.611 746.27 C 173.864 710.489 192.619 684.711 224.344 717.482 C 255.632 749.802 258.101 802.722 257.062 845.071 C 255.889 851.185 256.305 853.512 256.922 859.792 C 256.813 865.827 255.16 861.952 256.075 865.129 C 254.1 863.313 254.61 863.146 252.602 863.169 C 248.251 858.047 245.622 855.535 240.601 851.028 z"/>
<path transform="translate(0,0)" fill="rgb(92,164,230)" d="M 240.601 851.028 C 244.693 843.675 237.713 832.919 234.933 825.197 C 227.662 804.997 214.554 780.833 212.152 759.688 C 218.364 772.226 246.875 844.15 254.385 847.382 L 257.062 845.071 C 255.889 851.185 256.305 853.512 256.922 859.792 C 256.813 865.827 255.16 861.952 256.075 865.129 C 254.1 863.313 254.61 863.146 252.602 863.169 C 248.251 858.047 245.622 855.535 240.601 851.028 z"/>
<path transform="translate(0,0)" fill="rgb(144,193,236)" d="M 289.622 927.028 C 296.108 936.78 310.914 965.31 317.634 972.049 L 320.374 972.672 C 322.06 975.432 322.943 977.257 324.3 980.2 C 328.523 1005.52 353.527 1029.63 361.458 1050.97 C 361.589 1067.45 375.873 1054.32 376.553 1076.4 C 369.214 1072.99 362.689 1060.4 347.959 1059.71 C 343.387 1059.8 341.151 1058.03 333.411 1059.02 C 323.079 1060.33 315.085 1062.59 305.039 1065.06 C 284.055 1070.13 262.694 1070.91 241.417 1066.24 C 225.655 1062.83 194.781 1051.74 199.525 1030.44 C 201.866 1019.93 216.719 1013.42 226.149 1011.49 C 255.782 1005.43 287.466 1013.85 313.167 1028.9 C 320.959 1033.46 328.001 1041.49 335.178 1047 C 344.179 1054.31 348.913 1055.4 359.744 1058.39 C 352.332 1043.93 342.874 1029.4 334.401 1015.45 C 321.804 994.702 316.437 976.574 295.863 962.706 C 296.919 961.493 298.916 959.965 300.228 958.881 L 299.742 956.988 C 296.517 949.909 293.112 942.912 289.531 936.006 C 288.744 932.194 287.9 930.404 289.622 927.028 z"/>
<path transform="translate(0,0)" fill="rgb(70,137,191)" d="M 247.124 1035.46 C 258.193 1034.54 266.868 1035.74 277.747 1037.16 C 272.344 1041.74 255.827 1038.33 248.474 1037.34 L 247.124 1035.46 z"/>
<path transform="translate(0,0)" fill="url(#Gradient3)" d="M 295.863 962.706 C 276.662 951.263 264.864 953.307 243.569 954.357 C 214.517 955.423 191.591 953.561 165.463 939.503 C 140.136 925.876 116.595 893.123 160.373 885.446 C 183.716 881.353 210.681 890.582 230.222 902.942 C 237.882 907.786 246.817 913.152 253.437 919.579 C 262.745 928.797 285.509 960.986 299.742 956.988 L 300.228 958.881 C 298.916 959.965 296.919 961.493 295.863 962.706 z"/>
<path transform="translate(0,0)" fill="rgb(144,193,236)" d="M 318.565 933.099 C 312.44 899.036 316.279 864.18 335.177 834.655 C 348.06 814.528 387.725 788.653 391.606 829.06 C 394.51 859.303 372.82 892.798 354.453 914.936 C 346.926 924.076 338.87 932.769 330.328 940.968 L 325.586 949.781 L 324.563 948.927 C 323.904 950.342 324.401 949.781 323.071 950.607 L 322.865 950.486 C 321.99 948.06 321.628 947.629 320.174 945.459 L 318.565 933.099 z"/>
<path transform="translate(0,0)" fill="rgb(70,137,191)" d="M 318.565 933.099 C 320.335 932.847 321.291 933.05 322.255 931.119 C 328.061 919.475 346.13 862.146 354.551 857.106 C 355.973 862.625 325.087 924.86 330.328 940.968 L 325.586 949.781 L 324.563 948.927 C 323.904 950.342 324.401 949.781 323.071 950.607 L 322.865 950.486 C 321.99 948.06 321.628 947.629 320.174 945.459 L 318.565 933.099 z"/>
<path transform="translate(0,0)" fill="rgb(92,164,230)" d="M 1677.95 1012.83 C 1678.55 998.614 1677.8 997.981 1671.11 985.662 C 1658.76 962.901 1644.16 933.912 1653.79 907.794 C 1660.91 888.499 1677.3 897.663 1682.68 911.877 C 1690.77 930.967 1690.7 949.137 1689.12 969.328 C 1688.35 979.099 1680.26 995.459 1683.58 1004.07 C 1686.35 1004.29 1685.36 1004.34 1688.22 1002.16 L 1688.96 1002.81 C 1690.14 1003.83 1690.91 1004.74 1691.95 1005.9 C 1693.36 1005.47 1693.57 1005.71 1694.15 1004.9 L 1695.34 1004.29 C 1704.22 999.713 1711.25 993.338 1719.53 988.243 C 1732.29 980.389 1749.92 974.134 1764.97 973.942 C 1773.45 973.834 1793.19 975.901 1797.76 984.702 C 1802.29 993.915 1792.86 1001.15 1785.4 1004.25 C 1767.13 1011.86 1743.84 1010.27 1724.51 1008.12 C 1702.09 1005.63 1700.31 1002.39 1683.31 1018.04 C 1681.54 1017.5 1682.49 1017.62 1680.19 1018.68 L 1677.95 1012.83 z"/>
<path transform="translate(0,0)" fill="rgb(144,193,236)" d="M 368.824 1027.73 C 365.742 995.924 375.327 947.282 412.758 939.133 C 415.699 938.493 419.858 939.569 422.462 940.966 C 427.418 946.737 426.264 968.63 425.807 976.704 C 424.218 1004.77 401.63 1025.5 383.991 1045.3 C 382.369 1047.05 380.282 1049.16 378.96 1051.09 C 374.74 1049.3 375.036 1048.2 371.914 1043.82 C 370.93 1041.19 369.391 1031.03 368.824 1027.73 z"/>
<path transform="translate(0,0)" fill="rgb(70,137,191)" d="M 368.824 1027.73 C 371.566 1031 372.156 1031.77 372.364 1036.24 L 373.858 1037.65 C 376.437 1025.17 390.724 990.967 398.093 982.32 L 399.702 982.624 C 399.443 986.138 395.562 991.916 393.91 995.978 C 390.313 1004.82 379.39 1034.9 381.532 1042.98 C 382.557 1044.07 382.779 1044.44 383.991 1045.3 C 382.369 1047.05 380.282 1049.16 378.96 1051.09 C 374.74 1049.3 375.036 1048.2 371.914 1043.82 C 370.93 1041.19 369.391 1031.03 368.824 1027.73 z"/>
<path transform="translate(0,0)" fill="url(#Gradient2)" d="M 1759.41 924.458 C 1763.02 921.308 1767.19 917.688 1770.66 914.103 C 1788.91 894.805 1809.35 886.418 1834.32 880.864 C 1856.63 875.904 1888.44 887.891 1860.99 909.06 C 1841.36 924.197 1808.89 929.422 1784.69 928.914 C 1776.12 928.734 1767.84 928.735 1759.62 930.544 L 1759.41 924.458 z"/>
<path transform="translate(0,0)" fill="rgb(92,164,230)" d="M 1726.08 908.474 C 1725.89 883.806 1730.71 857.858 1747.19 838.623 C 1752.83 832.052 1765.59 827.258 1771.54 834.75 C 1784.39 850.948 1761.72 900.308 1749.5 912.682 C 1742.03 915.517 1734.37 935.477 1731.45 942.403 C 1732.13 938.476 1727.74 913.766 1726.32 909.22 L 1726.08 908.474 z"/>
<path transform="translate(0,0)" fill="rgb(70,137,191)" d="M 1749.48 873.753 C 1750.44 877.678 1742.45 911.946 1739.46 914.718 L 1738.27 914.214 C 1738.76 911.737 1739.24 909.259 1739.7 906.777 L 1738.11 906.497 C 1737.03 910.638 1736.88 911.744 1734.26 915.34 C 1732.16 909.928 1745.86 879.237 1749.48 873.753 z"/>
<path transform="translate(0,0)" fill="url(#Gradient1)" d="M 1665.02 1074.37 C 1675.54 1059.36 1694.96 1047.75 1713.31 1044.36 C 1723.74 1042.44 1749.46 1041.49 1753.22 1056.28 C 1753.76 1058.39 1751.81 1061.98 1750.31 1063.32 C 1729.81 1080.87 1702.23 1079.07 1677.13 1076.87 C 1674.03 1076.6 1669.88 1076.06 1666.86 1076.34 L 1665.02 1074.37 z"/>
<path transform="translate(0,0)" fill="rgb(167,203,241)" d="M 1563.22 112.59 L 1565.61 113.671 C 1571.51 124.502 1576.4 127.926 1586.6 133.955 C 1569.92 143.839 1574.59 143.689 1564.89 156.786 C 1555.81 143.07 1554.19 141.645 1540.16 133.775 C 1554.91 123.461 1551.87 128.534 1563.22 112.59 z"/>
<path transform="translate(0,0)" fill="rgb(167,203,241)" d="M 146.702 510.298 C 151.381 512.26 153.86 519.953 158.882 524.308 C 162.461 527.412 164.07 528.632 168.117 531.339 C 158.835 539.174 155.566 538.621 150.267 550.055 C 144.477 548.292 134.487 535.872 129.211 531.097 C 138.602 523.443 141.053 521.153 146.702 510.298 z"/>
<path transform="translate(0,0)" fill="rgb(167,203,241)" d="M 1925.52 504.419 C 1929.68 505.106 1930.89 506.731 1932.74 510.288 C 1936.06 516.696 1940 518.303 1945.63 522.463 L 1945.59 524.074 C 1943.01 526.971 1938.84 528.69 1935.32 530.46 C 1932.85 535.669 1931.96 537.638 1928.51 542.172 C 1924.85 540.526 1920.13 533.035 1915.92 529.799 C 1912.24 526.959 1910.2 525.635 1906.12 523.208 C 1916.98 516.363 1918.6 515.557 1925.52 504.419 z"/>
<path transform="translate(0,0)" fill="rgb(67,118,164)" fill-opacity="0.988235" d="M 1726.08 908.474 L 1726.32 909.22 C 1727.74 913.766 1732.13 938.476 1731.45 942.403 C 1734.37 935.477 1742.03 915.517 1749.5 912.682 C 1745.86 918.805 1736.73 932.004 1736.22 938.313 C 1741.17 939.586 1754.52 927.39 1759.41 924.458 L 1759.62 930.544 C 1739.95 938.145 1700.69 984.616 1692.64 1002.61 C 1693.33 1004.33 1692.85 1003.88 1694.15 1004.9 C 1693.57 1005.71 1693.36 1005.47 1691.95 1005.9 C 1690.91 1004.74 1690.14 1003.83 1688.96 1002.81 L 1688.22 1002.16 C 1698.13 978.849 1726.29 960.946 1728.26 936.799 C 1728.65 931.974 1726.31 915.688 1726.08 908.474 z"/>
<path transform="translate(0,0)" fill="rgb(167,203,241)" d="M 246.062 214.684 C 252.67 212.655 259.672 216.369 261.699 222.978 C 263.726 229.587 260.011 236.587 253.401 238.613 C 246.794 240.637 239.797 236.924 237.771 230.317 C 235.744 223.711 239.456 216.712 246.062 214.684 z"/>
<path transform="translate(0,0)" fill="rgb(167,203,241)" d="M 555.455 71.9773 C 556.671 72.3277 558.915 72.9883 560.021 73.5683 C 563.371 75.2983 565.827 78.3715 566.776 82.0205 C 569.032 90.827 562.954 94.2215 555.869 95.816 C 539.924 92.1393 540.159 76.8082 555.455 71.9773 z"/>
<path transform="translate(0,0)" fill="rgb(97,145,179)" d="M 256.922 859.792 C 263.035 873.454 268.843 885.671 275.809 898.884 C 277.94 902.927 288.862 924.049 289.622 927.028 C 287.9 930.404 288.744 932.194 289.531 936.006 C 284.567 929.098 254.722 870.746 252.602 863.169 C 254.61 863.146 254.1 863.313 256.075 865.129 C 255.16 861.952 256.813 865.827 256.922 859.792 z"/>
<path transform="translate(0,0)" fill="rgb(97,145,179)" d="M 348.395 664.747 C 350.796 662.369 352.769 659.697 355.889 659.283 C 357.23 664.279 355.965 667.954 360.976 670.99 C 364.881 673.356 368.44 673.048 371.581 676.345 L 371.368 677.825 C 363.314 682.193 355.341 666.36 346.949 676.621 C 344.839 675.421 345.344 675.438 343.929 672.982 C 342.694 668.315 338.982 667.608 336.163 662.359 L 336.65 661.187 C 340.895 661.097 344.456 663.051 348.395 664.747 z"/>
<path transform="translate(0,0)" fill="rgb(67,118,164)" d="M 1677.95 1012.83 L 1680.19 1018.68 C 1682.49 1017.62 1681.54 1017.5 1683.31 1018.04 C 1678.3 1028.27 1660.29 1063.02 1659.07 1073.87 L 1657.32 1071.8 C 1654.57 1073.18 1654.52 1074.43 1652.52 1076.31 C 1658.36 1061.18 1675.78 1024.53 1677.95 1012.83 z"/>
<path transform="translate(0,0)" fill="rgb(97,145,179)" d="M 1699.75 381.729 C 1711.07 381.891 1716.6 394.48 1716.14 404.279 C 1711.62 401.919 1700.59 386.547 1699.75 381.729 z"/>
<path transform="translate(0,0)" fill="rgb(70,137,191)" d="M 1652.52 1076.31 C 1654.52 1074.43 1654.57 1073.18 1657.32 1071.8 L 1659.07 1073.87 C 1661.34 1074.25 1662.71 1074.61 1665.02 1074.37 L 1666.86 1076.34 C 1662.38 1079.97 1661.37 1080.85 1657.85 1085.37 L 1655.79 1084.74 C 1653.33 1085.26 1649.83 1086.15 1647.44 1086.35 C 1649.08 1083.77 1651.12 1079.2 1652.52 1076.31 z"/>
<path transform="translate(0,0)" fill="rgb(70,137,191)" d="M 320.174 945.459 C 321.628 947.629 321.99 948.06 322.865 950.486 L 323.071 950.607 C 324.401 949.781 323.904 950.342 324.563 948.927 L 325.586 949.781 C 323.875 961.382 324.187 968.459 324.3 980.2 C 322.943 977.257 322.06 975.432 320.374 972.672 L 317.634 972.049 C 321.239 967.957 320.201 951.499 320.174 945.459 z"/>
<path transform="translate(0,0)" fill="rgb(97,145,179)" d="M 1808.71 354.22 C 1809.87 354.673 1810.4 355.095 1811.46 355.754 C 1812.72 362.522 1806.09 373.121 1802.42 378.731 L 1800.01 377.902 C 1798.7 372.931 1806.23 359.18 1808.71 354.22 z"/>
<path transform="translate(0,0)" fill="rgb(97,145,179)" d="M 1648.34 406.512 C 1656.79 406.592 1660.92 417.997 1663.02 424.806 C 1653.67 424.749 1650.12 414.216 1648.34 406.512 z"/>
<path transform="translate(0,0)" fill="rgb(70,137,191)" d="M 1701.76 437.185 C 1706.95 437.408 1718.77 436.103 1721.68 439.965 L 1720.93 442.76 C 1717.98 442.964 1715.04 443.145 1712.09 443.302 C 1708.17 443.503 1702.78 444.167 1699.84 441.506 C 1699.94 438.783 1699.79 439.731 1701.76 437.185 z"/>
<path transform="translate(0,0)" fill="rgb(97,145,179)" d="M 1792.05 388.493 L 1793.72 389.256 L 1794.45 391.427 C 1792.39 397.266 1788.04 403.48 1783.98 408.131 C 1782.48 407.517 1782.13 407.111 1780.83 406.115 L 1780.54 403.502 C 1782.26 398.557 1788.36 392.712 1792.05 388.493 z"/>
<path transform="translate(0,0)" fill="rgb(97,145,179)" d="M 286.226 620.457 C 293.253 621.885 298.452 630.484 301.975 636.244 C 292.721 638.752 287.441 628.008 286.226 620.457 z"/>
<path transform="translate(0,0)" fill="rgb(97,145,179)" d="M 371.621 627.387 L 373.702 628.677 C 375.137 634.981 370.174 643.582 365.928 648.004 C 364.245 646.934 364.398 646.817 363.52 644.975 C 364.87 637.906 367.547 633.23 371.621 627.387 z"/>
<path transform="translate(0,0)" fill="rgb(67,118,164)" d="M 281.657 556.299 L 283.848 557.374 C 285.294 560.963 280.732 572.295 279.225 576.699 C 277.786 576.28 277.424 575.996 276.083 575.314 C 273.576 569.097 277.433 560.95 281.657 556.299 z"/>
<path transform="translate(0,0)" fill="rgb(70,137,191)" d="M 323.877 531.362 C 329.812 531.66 340.033 531.385 342.852 537.428 L 341.741 539.698 C 337.064 539.254 325.178 537.432 322.623 533.689 L 323.877 531.362 z"/>
<path transform="translate(0,0)" fill="rgb(97,145,179)" d="M 1719.11 413.539 C 1725.3 416.077 1726.29 428.867 1724.48 434.614 C 1721.82 434.574 1723.01 434.984 1720.86 433.107 C 1718.95 427.707 1716.93 418.976 1719.11 413.539 z"/>
<path transform="translate(0,0)" fill="rgb(67,118,164)" d="M 384.375 681.342 C 392.235 680.366 403.465 679.096 405.496 688.232 C 400.639 687.43 389.011 685.921 385.15 683.888 L 384.375 681.342 z"/>
<path transform="translate(0,0)" fill="rgb(97,145,179)" d="M 1662.96 549.879 L 1664.39 551.014 L 1664.32 553.118 C 1660.78 558.248 1655.56 560.997 1650.09 563.672 L 1647.83 561.415 C 1649.74 556.244 1657.92 552.672 1662.96 549.879 z"/>
<path transform="translate(0,0)" fill="rgb(67,118,164)" d="M 1721.33 452.466 C 1722.67 453.363 1722.85 454.098 1723.61 455.543 C 1723.46 461.487 1722.5 469.021 1718.33 473.551 C 1716.3 472.585 1717.13 473.313 1716.04 471.033 C 1716.4 464.813 1717.9 457.741 1721.33 452.466 z"/>
<path transform="translate(0,0)" fill="rgb(97,145,179)" d="M 1672.01 429.901 C 1678 431.573 1689.7 433.32 1689.51 440.421 C 1683.99 440.289 1670.94 437.14 1672.01 429.901 z"/>
<path transform="translate(0,0)" fill="rgb(97,145,179)" d="M 308.487 644.817 C 315.743 645.699 322.034 651.364 325.976 657.209 C 318.016 657.636 310.4 652.808 308.487 644.817 z"/>
<path transform="translate(0,0)" fill="rgb(97,145,179)" d="M 1685.2 527.657 L 1686.43 528.26 L 1686.91 530.445 C 1684.78 536.354 1681.21 539.751 1676.23 543.351 L 1674.04 541.386 L 1674.06 539.097 C 1676.17 535.062 1681.61 530.824 1685.2 527.657 z"/>
<path transform="translate(0,0)" fill="rgb(67,118,164)" d="M 369.592 564.237 C 376.156 565.825 378.83 576.019 379.068 581.884 C 372.157 581.948 370.093 569.434 369.592 564.237 z"/>
<path transform="translate(0,0)" fill="rgb(60,95,109)" d="M 276.94 589.328 C 277.649 589.811 278.713 590.866 279.387 591.485 C 280.893 596.503 282.624 605.24 281.009 610.25 C 274.683 605.808 275.584 595.966 276.94 589.328 z"/>
<path transform="translate(0,0)" fill="rgb(97,145,179)" d="M 1769.56 414.737 L 1771.67 414.959 L 1772.66 416.329 C 1771.7 421.249 1766.38 424.424 1762.45 426.947 L 1760.11 425.668 L 1759.59 423.724 C 1761.36 420.228 1766.25 417.164 1769.56 414.737 z"/>
<path transform="translate(0,0)" fill="rgb(97,145,179)" d="M 1744.28 430.866 C 1746.62 430.563 1746.46 430.512 1748.55 431.582 L 1748.02 433.319 C 1743.88 436.869 1742.35 437.321 1737.24 439.343 C 1735.7 439.924 1735.36 439.7 1733.57 439.656 C 1733.49 438.526 1733.53 438.064 1733.58 436.939 C 1737.33 432.808 1738.89 432.551 1744.28 430.866 z"/>
<path transform="translate(0,0)" fill="rgb(97,145,179)" d="M 351.969 542.569 C 359.107 542.723 364.272 549.103 363.46 556.339 C 358.944 553.819 352.248 548.103 351.969 542.569 z"/>
<path transform="translate(0,0)" fill="rgb(70,81,76)" d="M 1712.21 484.557 C 1713.56 485.628 1713.17 485.394 1714.09 487.01 C 1713.44 492.151 1711.61 496.731 1707.82 500.376 C 1707.06 499.516 1706.57 498.499 1705.99 497.48 C 1706.25 491.847 1708.85 488.793 1712.21 484.557 z"/>
<path transform="translate(0,0)" fill="rgb(97,145,179)" fill-opacity="0.968627" d="M 332.643 688.322 C 335.61 683.204 340.216 677.708 343.929 672.982 C 345.344 675.438 344.839 675.421 346.949 676.621 C 345.696 679.425 335.679 686.17 332.643 688.322 z"/>
</svg>